<?xml version="1.0" encoding="utf-8"?>
<!-- Generator: Adobe Illustrator 24.1.2, SVG Export Plug-In . SVG Version: 6.00 Build 0)  -->
<svg version="1.1" id="Capa_1" xmlns="http://www.w3.org/2000/svg" xmlns:xlink="http://www.w3.org/1999/xlink" x="0px" y="0px"
	 viewBox="0 0 1000 1000" style="enable-background:new 0 0 1000 1000;" xml:space="preserve">
<style type="text/css">
	.st0{fill:#555555;}
	.st1{fill:#5FC214;}
	.st2{fill:#696969;}
	.st3{fill:#DAF2F7;}
	.st4{fill:#BDDBE4;}
</style>
<g>
	<path class="st0" d="M475.8,4.6c132.6,0,265.3,0,397.9,0c0.6,0.6,1.2,1.6,1.9,1.8c43.1,10.1,69.5,43.2,69.5,87.2
		c0,123.6,0,247.2,0,370.8c0,20.9-0.2,41.8-0.2,62.7c-2-2.5-4-5-5.9-7.5c-56.6-76-132-118.9-226.6-124.2
		c-87.3-4.9-163.1,24.3-226,85.6C376.9,587.9,366.3,760.3,461.6,880c19.4,24.4,42.6,44.6,67.4,63.1c-3.2,0.1-6.4,0.3-9.6,0.3
		c-141.5,0-283,0-424.5-0.1c-50.5,0-88.4-37.8-88.4-88.2c0-105.8,0-211.6,0-317.4c0-21.2,0.2-42.4,0.3-63.7
		c151.6,0,303.2,0,454.8-0.1c14.2,0,14.2,0,14.2-14.5C475.8,307.8,475.8,156.2,475.8,4.6z M318.2,758.8c0-10.6-3.5-17.7-9.4-23.6
		c-7.5-7.5-14.8-15.2-22.6-22.4c-3.5-3.3-3.2-5.2,0.1-8.3c7.9-7.5,15.7-15.2,23.2-23.2c11.7-12.5,11.7-30.4,0.2-41.6
		c-11.4-11.2-29.2-10.8-41.6,1.1c-7.7,7.3-15.2,14.8-22.5,22.5c-3.5,3.8-5.7,3.5-9-0.1c-7-7.5-14.4-14.7-21.8-21.9
		c-12.9-12.4-30.7-13-42.3-1.6c-11.7,11.5-11.3,29.4,1,42.3c7.3,7.6,14.8,15.2,22.5,22.5c3.4,3.2,3.3,5.2-0.1,8.3
		c-7.7,7.3-15.2,14.8-22.5,22.5c-12.3,12.8-12.6,30.8-0.9,42.3c11.4,11.2,29.1,10.9,41.6-1c7.7-7.3,15.2-14.8,22.5-22.5
		c3.5-3.7,5.6-3.6,9,0c7.7,8.2,15.6,16.2,23.9,23.8c9.5,8.6,20.6,10.3,32.2,5C312.9,777.9,317.8,768.5,318.2,758.8z M711.5,210.4
		c-21.9,0-43.8-0.1-65.6,0c-19,0.1-31.8,11.9-31.8,28.8c0,16.5,12.4,28.8,30.8,29c43.7,0.4,87.5,0.4,131.3,0
		c18.4-0.2,30.8-12.4,30.8-28.9c0-16.9-12.8-28.7-31.8-28.9C754,210.3,732.7,210.4,711.5,210.4z"/>
	<path class="st1" d="M529,943c-24.8-18.5-48-38.7-67.4-63.1c-95.3-119.7-84.7-292.1,24.8-398.9c62.8-61.3,138.7-90.5,226-85.6
		c94.6,5.3,170,48.2,226.6,124.2c1.9,2.6,4,5,6,7.5c20.2,32.2,35.7,66.4,43.8,103.8c2.5,11.4,2.3,23.3,6.7,34.3c0,20,0,39.9,0,59.9
		c-4.2,7.8-3.8,16.6-5.3,24.9c-31.3,169-203.2,278-369.1,234.1C588.1,975.2,557.8,960.9,529,943z M696.1,665.2c21.2,0,42.4,0,63.6,0
		c19.6,0,32.8-11.6,32.9-28.8c0.1-17.2-13.1-29.1-32.5-29.1c-42.7-0.1-85.5-0.1-128.2,0c-19.3,0-32.6,12.1-32.4,29.2
		c0.2,16.8,13.3,28.6,32,28.7C653,665.2,674.6,665.2,696.1,665.2z M695.9,781c21.8,0,43.7,0.1,65.5,0c18-0.1,30.9-12.1,31.1-28.6
		c0.2-16.8-12.9-29.2-31.4-29.3c-43.4-0.1-86.7-0.1-130.1,0c-18.6,0-31.7,12.3-31.6,29.1c0.1,16.8,13.2,28.7,31.9,28.8
		C652.9,781.1,674.4,781,695.9,781z"/>
	<path class="st2" d="M475.8,4.6c0,151.6,0,303.2,0,454.8c0,14.5,0,14.5-14.2,14.5C310,474,158.4,474,6.8,474
		c-0.1-3.2-0.3-6.4-0.3-9.6c0-124.5,0-249,0-373.5C6.5,53,31.3,19.6,67.4,8.4c3.6-1.1,7.7-0.7,10.6-3.7
		C210.6,4.6,343.2,4.6,475.8,4.6z M337.6,238.8c-0.2-15.6-12-27.6-28.4-28.3c-10.3-0.4-20.6-0.4-30.9,0c-6.4,0.2-8.5-2.2-8.3-8.4
		c0.4-9.6,0.3-19.3,0-29c-0.6-17.8-12.3-30-28.6-30.2c-16.6-0.2-28.8,12.3-29.3,30.4c-0.3,9.6-0.4,19.3,0,29
		c0.3,6.5-2.4,8.4-8.5,8.2c-9-0.3-18-0.2-27-0.1c-19.1,0.2-31.9,11.7-32,28.7c-0.1,16.9,12.5,28.7,31.6,29.3c9.3,0.3,18.7,0.3,28,0
		c5.8-0.2,8.1,1.7,7.9,7.7c-0.3,10-0.3,20,0,29.9c0.6,17.6,12.8,29.8,29,29.7c16.3-0.1,28.2-12.2,28.8-30c0.3-9.3,0.5-18.7,0-28
		c-0.4-7,1.7-9.8,9.2-9.5c10.9,0.4,21.9,0.5,32.8-0.5C327.3,266.2,337.8,253.7,337.6,238.8z"/>
	<path class="st3" d="M318.2,758.8c-0.3,9.8-5.3,19.1-16.4,24.1c-11.6,5.3-22.8,3.6-32.2-5c-8.3-7.6-16.2-15.6-23.9-23.8
		c-3.4-3.6-5.6-3.7-9,0c-7.2,7.8-14.8,15.2-22.5,22.5c-12.5,11.9-30.2,12.2-41.6,1c-11.7-11.4-11.4-29.5,0.9-42.3
		c7.3-7.6,14.8-15.2,22.5-22.5c3.3-3.1,3.5-5.1,0.1-8.3c-7.7-7.3-15.2-14.8-22.5-22.5c-12.3-12.9-12.7-30.8-1-42.3
		c11.6-11.5,29.4-10.9,42.3,1.6c7.4,7.1,14.8,14.4,21.8,21.9c3.4,3.6,5.5,3.9,9,0.1c7.2-7.8,14.8-15.2,22.5-22.5
		c12.4-11.9,30.2-12.3,41.6-1.1c11.4,11.2,11.5,29.1-0.2,41.6c-7.5,8-15.2,15.7-23.2,23.2c-3.3,3.1-3.6,5-0.1,8.3
		c7.8,7.2,15.1,14.9,22.6,22.4C314.7,741.1,318.2,748.1,318.2,758.8z"/>
	<path class="st4" d="M711.5,210.4c21.2,0,42.5-0.1,63.7,0c18.9,0.1,31.8,11.9,31.8,28.9c0,16.5-12.4,28.8-30.8,28.9
		c-43.7,0.4-87.5,0.4-131.3,0c-18.4-0.2-30.8-12.5-30.8-29c0-16.9,12.9-28.7,31.8-28.8C667.7,210.3,689.6,210.4,711.5,210.4z"/>
	<path class="st4" d="M696.1,665.2c-21.5,0-43,0.1-64.6,0c-18.8-0.1-31.8-11.8-32-28.7c-0.2-17.2,13.1-29.2,32.4-29.2
		c42.7-0.1,85.5-0.1,128.2,0c19.4,0,32.6,12,32.5,29.1c-0.1,17.2-13.3,28.7-32.9,28.8C738.5,665.2,717.3,665.2,696.1,665.2z"/>
	<path class="st4" d="M695.9,781c-21.5,0-43,0.1-64.6,0c-18.7-0.1-31.8-12-31.9-28.8c-0.1-16.8,13-29.1,31.6-29.1
		c43.4-0.1,86.7-0.1,130.1,0c18.5,0,31.6,12.4,31.4,29.3c-0.2,16.5-13.1,28.5-31.1,28.6C739.6,781.1,717.8,781,695.9,781z"/>
	<path class="st3" d="M337.6,238.8c0.2,14.9-10.3,27.4-25.6,28.9c-10.8,1.1-21.9,1-32.8,0.5c-7.4-0.3-9.5,2.5-9.2,9.5
		c0.5,9.3,0.4,18.7,0,28c-0.6,17.7-12.5,29.9-28.8,30c-16.3,0.1-28.4-12.1-29-29.7c-0.4-10-0.4-20,0-29.9c0.2-6-2.2-7.9-7.9-7.7
		c-9.3,0.3-18.7,0.3-28,0c-19.1-0.5-31.7-12.4-31.6-29.3c0.1-16.9,12.9-28.5,32-28.7c9-0.1,18-0.3,27,0.1c6.1,0.2,8.7-1.7,8.5-8.2
		c-0.4-9.6-0.3-19.3,0-29c0.5-18.2,12.7-30.7,29.3-30.4c16.3,0.2,28,12.4,28.6,30.2c0.3,9.6,0.4,19.3,0,29c-0.2,6.2,1.9,8.7,8.3,8.4
		c10.3-0.4,20.6-0.4,30.9,0C325.6,211.2,337.4,223.2,337.6,238.8z"/>
</g>
</svg>
