<?xml version="1.0" encoding="utf-8"?>
<!-- Generator: Adobe Illustrator 24.1.2, SVG Export Plug-In . SVG Version: 6.00 Build 0)  -->
<svg version="1.1" id="Capa_1" xmlns="http://www.w3.org/2000/svg" xmlns:xlink="http://www.w3.org/1999/xlink" x="0px" y="0px"
	 viewBox="0 0 1000 1000" style="enable-background:new 0 0 1000 1000;" xml:space="preserve">
<style type="text/css">
	.st0{fill:#0055A2;}
	.st1{fill:#E1E1E1;}
	.st2{fill:#528FD7;}
	.st3{fill:#0573CD;}
	.st4{fill:#B1C9EB;}
</style>
<g>
	<path class="st0" d="M820.4,526.6c31.4,31.2,62.7,62.3,94.1,93.5c9,8.9,17.6,18.3,27,26.8c18.2,16.4,28.6,37,34.9,60.2
		c0,11.8,0,23.5,0,35.3c-6.9,32.3-28.6,54.5-51.1,76.5c-42.2,41.2-83.7,83.1-125.4,124.8c-14.5,14.5-31.2,24.9-51.1,30.2
		c-2.8,0.7-6.4-0.9-8.3,2.5c-11.1,0-22.3,0-33.4,0c-3.5-3.6-8.4-2.9-12.6-4.3c-14.5-4.9-27.9-11.9-38.7-22.7
		c-43.1-42.9-85.9-85.9-128.9-128.9c1.4-3.6,4.6-5.8,7.2-8.4c74.5-74.6,149.1-149.2,223.7-223.8c2.8-2.8,6.4-5,7.3-9.3
		c15.5-15.4,31-30.7,46.6-46C814.2,530.4,816.3,527.1,820.4,526.6z"/>
	<path class="st1" d="M240.9,23.6c2.7,5.3,8.5,7.2,12.5,11.3c43.8,44.3,87.9,88.2,132,132.2c2.4,2.4,5,4.6,7.5,6.8
		c-7.7,8.1-15.4,16.1-23,24.2c-3,3-6.1,6-9.1,9c-60.2,60.2-120.4,120.4-180.6,180.5c-2,1.9-4.1,3.7-6.2,5.5
		c-2.2-2.5-4.4-5.2-6.8-7.6c-44.1-44.1-88.1-88.3-132.4-132.1c-4.1-4-6-9.8-11.3-12.6c0-3.7,0-7.4,0-11.1c6.2-2,7.3-8.5,11.4-12.6
		C95.9,156.7,156.7,95.9,217.2,35c4-4.1,10.6-5.2,12.6-11.4C233.5,23.6,237.2,23.6,240.9,23.6z M304,180.6c0.3-3.2-1.6-5.5-3.9-7.8
		c-19.2-19.2-38.5-38.4-57.6-57.7c-5.4-5.4-10.9-5.8-16.3-0.8c-7.2,6.7-14.3,13.7-20.9,21c-5.1,5.5-5.2,11.5,0.5,17.2
		c19,19,38,38,57,57c2.5,2.5,5.2,4.5,8.8,4.6C277.9,214.3,304.2,187.2,304,180.6z M182.5,303.6c1.5-0.6,3.9-1,5.3-2.3
		c8.4-8.2,16.9-16.3,24.8-25c3.7-4.1,3-9.2-1.1-13.4c-19.6-19.7-39.3-39.4-59-58.9c-4.9-4.9-10.5-5.2-15.6-0.3
		c-7.3,7.1-14.6,14.3-21.5,21.7c-5,5.4-4.6,10.8,0.8,16.2c19.1,18.9,38.1,38,57,57C175.7,301.1,178.4,303,182.5,303.6z"/>
	<path class="st2" d="M174,393.1c2.1-1.8,4.3-3.5,6.2-5.5c60.2-60.2,120.4-120.4,180.6-180.5c3-3,6.1-6,9.1-9
		c10.9-1.6,18.4,3.4,26,10.9c120.6,121,241.5,241.7,362.2,362.5c2.4,2.4,4.6,5,7,7.5c-0.9,4.3-4.5,6.5-7.3,9.3
		c-74.5,74.6-149.1,149.2-223.7,223.8c-2.6,2.6-5.8,4.8-7.2,8.4c-125.1-125-250.2-250-375.3-375.1c-10.1-10.1-9.9-18.9-0.1-28.9
		C159,408.7,166.5,400.9,174,393.1z M695.3,557.1c-0.4-5.6-3.1-9.1-6.5-12.5C598.4,454.3,508,363.9,417.6,273.5
		c-8.8-8.8-13.9-8.8-22.7,0c-40.5,40.5-81,80.9-121.5,121.5c-8.7,8.7-8.7,13.8,0.2,22.7c90.4,90.4,180.8,180.8,271.2,271.2
		c8.5,8.4,14.5,8.7,23,0.3c40.6-40.4,81-80.9,121.5-121.4C692.4,564.6,694.5,560.8,695.3,557.1z"/>
	<path class="st3" d="M765,579c-2.3-2.5-4.6-5.1-7-7.5C637.3,450.7,516.5,330,395.9,209c-7.5-7.5-15.1-12.5-26-10.9
		c7.7-8.1,15.4-16.1,23-24.2c7.3-7.1,14.7-14.1,21.9-21.3c11.9-11.7,19.9-11.9,31.7-0.2c22.6,22.5,45.1,45.1,67.6,67.6
		c101.8,101.7,203.5,203.4,305.3,305.1c0.4,0.4,0.7,1,1,1.5c-4.1,0.4-6.2,3.8-8.8,6.3C796.1,548.3,780.6,563.6,765,579z"/>
	<path class="st2" d="M304,180.6c0.2,6.6-26.1,33.7-32.5,33.5c-3.5-0.1-6.3-2.2-8.8-4.6c-19-19-37.9-38-57-57
		c-5.7-5.7-5.5-11.6-0.5-17.2c6.7-7.3,13.7-14.2,20.9-21c5.4-5,10.9-4.6,16.3,0.8c19.1,19.3,38.4,38.5,57.6,57.7
		C302.4,175.1,304.3,177.5,304,180.6z"/>
	<path class="st2" d="M182.5,303.6c-4.1-0.7-6.8-2.5-9.3-5c-19-19-37.9-38.1-57-57c-5.4-5.4-5.8-10.8-0.8-16.2
		c6.9-7.5,14.2-14.7,21.5-21.7c5.1-4.9,10.7-4.5,15.6,0.3c19.7,19.6,39.4,39.3,59,58.9c4.1,4.1,4.8,9.3,1.1,13.4
		c-7.8,8.7-16.3,16.8-24.8,25C186.4,302.7,184,303,182.5,303.6z"/>
	<path class="st4" d="M695.3,557.1c-0.8,3.7-2.9,7.4-6,10.6c-40.5,40.5-80.9,81-121.5,121.4c-8.5,8.4-14.5,8.1-23-0.3
		C454.4,598.5,364,508.1,273.6,417.7c-8.9-8.9-8.9-14-0.2-22.7c40.5-40.5,80.9-81,121.5-121.5c8.8-8.8,13.9-8.8,22.7,0
		c90.4,90.4,180.8,180.8,271.2,271.1C692.2,548,694.9,551.6,695.3,557.1z"/>
</g>
</svg>
