<?xml version="1.0" ?><!-- Uploaded to: SVG Repo, www.svgrepo.com, Generator: SVG Repo Mixer Tools -->
<svg width="800px" height="800px" viewBox="0 0 200 200" data-name="Layer 2" id="Layer_2" xmlns="http://www.w3.org/2000/svg"><defs><style>.cls-1{fill:#ffffff;}.cls-2{fill:#ffc861;}.cls-3,.cls-4{fill:none;stroke:#2f4360;}.cls-3{stroke-linecap:round;stroke-linejoin:round;stroke-width:6px;}.cls-4{stroke-miterlimit:10;stroke-width:2.25px;}</style></defs><title/><rect class="cls-1" height="40" transform="translate(-41.42 100) rotate(-45)" width="232.67" x="-16.34" y="80"/><rect class="cls-2" height="31" transform="translate(-42.74 103.18) rotate(-45)" width="232.67" x="-13.15" y="87.68"/><rect class="cls-3" height="232.67" transform="translate(100 -41.42) rotate(45)" width="40" x="80" y="-16.33"/><line class="cls-4" x1="159.16" x2="173.3" y1="12.56" y2="26.7"/><line class="cls-4" x1="155.06" x2="162.13" y1="16.66" y2="23.73"/><line class="cls-4" x1="150.95" x2="158.02" y1="20.77" y2="27.84"/><line class="cls-4" x1="146.85" x2="153.92" y1="24.87" y2="31.94"/><line class="cls-4" x1="142.74" x2="149.81" y1="28.98" y2="36.05"/><line class="cls-4" x1="142.74" x2="156.88" y1="28.98" y2="43.12"/><line class="cls-4" x1="138.64" x2="145.71" y1="33.08" y2="40.16"/><line class="cls-4" x1="134.53" x2="141.6" y1="37.19" y2="44.26"/><line class="cls-4" x1="130.42" x2="137.5" y1="41.3" y2="48.37"/><line class="cls-4" x1="126.32" x2="133.39" y1="45.4" y2="52.47"/><line class="cls-4" x1="126.32" x2="140.46" y1="45.4" y2="59.54"/><line class="cls-4" x1="122.21" x2="129.28" y1="49.51" y2="56.58"/><line class="cls-4" x1="118.11" x2="125.18" y1="53.61" y2="60.68"/><line class="cls-4" x1="114" x2="121.07" y1="57.72" y2="64.79"/><line class="cls-4" x1="109.9" x2="116.97" y1="61.82" y2="68.89"/><line class="cls-4" x1="109.9" x2="124.04" y1="61.82" y2="75.96"/><line class="cls-4" x1="105.79" x2="112.86" y1="65.93" y2="73"/><line class="cls-4" x1="101.69" x2="108.76" y1="70.03" y2="77.1"/><line class="cls-4" x1="97.58" x2="104.65" y1="74.14" y2="81.21"/><line class="cls-4" x1="93.47" x2="100.55" y1="78.24" y2="85.32"/><line class="cls-4" x1="93.47" x2="107.62" y1="78.24" y2="92.39"/><line class="cls-4" x1="89.37" x2="96.44" y1="82.35" y2="89.42"/><line class="cls-4" x1="85.26" x2="92.33" y1="86.46" y2="93.53"/><line class="cls-4" x1="81.16" x2="88.23" y1="90.56" y2="97.63"/><line class="cls-4" x1="77.05" x2="84.12" y1="94.67" y2="101.74"/><line class="cls-4" x1="77.05" x2="91.19" y1="94.67" y2="108.81"/><line class="cls-4" x1="72.95" x2="80.02" y1="98.77" y2="105.84"/><line class="cls-4" x1="68.84" x2="75.91" y1="102.88" y2="109.95"/><line class="cls-4" x1="64.74" x2="71.81" y1="106.98" y2="114.05"/><line class="cls-4" x1="60.63" x2="67.7" y1="111.09" y2="118.16"/><line class="cls-4" x1="60.63" x2="74.77" y1="111.09" y2="125.23"/><line class="cls-4" x1="56.52" x2="63.6" y1="115.19" y2="122.27"/><line class="cls-4" x1="52.42" x2="59.49" y1="119.3" y2="126.37"/><line class="cls-4" x1="48.31" x2="55.38" y1="123.41" y2="130.48"/><line class="cls-4" x1="44.21" x2="51.28" y1="127.51" y2="134.58"/><line class="cls-4" x1="44.21" x2="58.35" y1="127.51" y2="141.65"/><line class="cls-4" x1="40.1" x2="47.17" y1="131.62" y2="138.69"/><line class="cls-4" x1="36" x2="43.07" y1="135.72" y2="142.79"/><line class="cls-4" x1="31.89" x2="38.96" y1="139.83" y2="146.9"/><line class="cls-4" x1="27.79" x2="34.86" y1="143.93" y2="151"/><line class="cls-4" x1="27.79" x2="41.93" y1="143.93" y2="158.08"/><line class="cls-4" x1="23.68" x2="30.75" y1="148.04" y2="155.11"/><line class="cls-4" x1="19.57" x2="26.65" y1="152.14" y2="159.22"/><line class="cls-4" x1="15.47" x2="22.54" y1="156.25" y2="163.32"/><line class="cls-4" x1="11.36" x2="18.43" y1="160.36" y2="167.43"/></svg>