<?xml version="1.0" encoding="utf-8"?>
<!-- Generator: Adobe Illustrator 24.1.2, SVG Export Plug-In . SVG Version: 6.00 Build 0)  -->
<svg version="1.1" id="Capa_1" xmlns="http://www.w3.org/2000/svg" xmlns:xlink="http://www.w3.org/1999/xlink" x="0px" y="0px"
	 viewBox="0 0 1000 1000" style="enable-background:new 0 0 1000 1000;" xml:space="preserve">
<style type="text/css">
	.st0{fill:#030302;}
	.st1{fill:#F6ECAD;}
	.st2{fill:#F3E47F;}
	.st3{fill:#EFD133;}
	.st4{fill:#F4E065;}
</style>
<g>
	<path class="st0" d="M989,536.3c-4.7,13.8-4.5,28.4-7.2,42.5c-20.5,107.4-73.3,195.3-158.3,263.7c-65.5,52.7-140.6,82.8-224,92.5
		c-19,2.2-38.1,2.8-57.2,2.5c-43.9-0.8-87.8,1.9-131.6-1.9c-83.8-7.2-159.4-36-226.1-87C97.2,781.7,42.1,693.8,19.8,585.8
		C-22.9,379.3,93.5,167.4,290.4,92c11-4.2,15.1-3,22.6,7.1c0.3,13.3-1.1,15.2-15.7,21.1C121.7,190.7,16.1,370.9,44.6,560.5
		c16.5,109.6,70.1,198.2,158.1,265.8c28.3,21.7,58.8,39.8,92.5,52c1.1,1.6,2.8,1.8,4.6,1.7c0,0,0.6,0.2,0.6,0.2
		c1.4,0.7,2.7,1.6,4.1,2.1c70.9,26.8,143.9,33.4,218.3,19.7c174.2-32,307.4-170.9,330.8-346.7c16.7-125.2-18.2-235.7-102-330.4
		c-24.1-27.2-51.4-51-83-69.4c0,0,0.1,0.1,0.1,0.1c-0.8-0.5-1.6-1.1-2.4-1.6c0,0,0.1,0.1,0.1,0.1c-0.7-1.7-2.2-2.1-3.8-2.5
		C602.8,113.9,537,94.9,466.6,91.5c-32.2-1.5-64.2,0.7-95.8,7.2c-9.5,1.9-17.9,1.2-22.1-9.4c0.2-12.5,3.4-16.6,15.5-18.7
		c26.9-4.8,54-8.2,81.4-8c38.5,0.2,77-0.8,115.4,0.3c126.9,3.6,233.3,52.9,318,147.3c63.6,71,99,154.9,108.1,249.8
		c0.1,1.5-0.2,3.2,1.9,3.7C989,487.9,989,512.1,989,536.3z M922.2,475.6c-9.9,0-19.7,0.2-29.6-0.1c-4.7-0.1-6.9,0.8-6.7,6.2
		c0.4,12.1,0.4,24.2,0,36.3c-0.2,5.2,1.6,6.4,6.5,6.4c20-0.2,40.1-0.2,60.1,0c5,0.1,7.7-0.9,7.6-6.7c-0.3-11.8-0.3-23.5,0-35.3
		c0.1-5.6-2.3-7-7.4-6.9C942.5,475.9,932.4,475.6,922.2,475.6z M875.6,398.9c2.5,15.1,4.8,29.5,7.1,43.9c0.6,3.8,2.9,4.3,6.1,4.3
		c21-0.1,41.9-0.1,62.9,0c4.7,0,5.3-2.1,4.5-5.9c-2.5-12.4-5-24.9-7.2-37.4c-0.6-3.3-1.9-5-5.5-5C921,398.9,898.5,398.9,875.6,398.9
		z M920.3,553c-10.2,0-20.3,0.1-30.5,0c-3.9-0.1-6.6,0.4-7.3,5.2c-1.9,12.5-3.9,25.1-6.4,37.5c-1.1,5.5,1.4,5.6,5.5,5.6
		c20-0.1,40-0.2,60,0c4.5,0,6.9-0.9,7.7-5.9c1.9-11.9,4.4-23.7,6.9-35.5c1.3-5.8-1-7.1-6.3-6.9C940,553.2,930.2,553,920.3,553z
		 M849.8,322.1c5.5,15.3,10.8,29.5,15.8,43.8c1.1,3.1,2.6,4.4,6.1,4.4c22.2-0.2,44.4-0.1,67.4-0.1c-4.5-15.8-11.1-30.2-17.5-44.6
		c-1.4-3.3-3.9-3.5-6.9-3.5C893.4,322.1,872.1,322.1,849.8,322.1z M939.1,629.8c-23.2,0-45.1,0-67,0c-2.5,0-4.9-0.3-6,3.1
		c-5.2,14.8-10.7,29.6-16.3,45.1c22.2,0,43.8-0.1,65.4,0.1c3.3,0,5.3-1,6.6-4C928.1,659.8,934.4,645.6,939.1,629.8z M904.2,706.6
		c-13.9,0-26.4,1.4-38.4-0.3c-22.2-3.2-37.4,3-45.6,25.1c-3,8.2-9.4,15.1-15,23.7c21.6,0,41.3,0,61,0c2.6,0,5-0.2,6.8-2.5
		C884.1,738.3,894.6,723.8,904.2,706.6z M904.2,293.4c-9.6-17.3-20.1-31.9-31.2-46c-1.3-1.6-2.9-2.4-4.9-2.4c-20.5,0-41.1,0-63.1,0
		c10.5,15.7,20,29.9,28,45c1.6,3.1,4,3.5,7,3.5C860.7,293.4,881.4,293.4,904.2,293.4z M734,167.9c17.5,15.4,32.3,30,45.9,45.8
		c1.3,1.5,2.8,2.5,4.9,2.5c19.5,0,39,0,60.6,0c-17.4-18.6-35-33.3-53.5-47c-2.3-1.7-4.8-1.3-7.3-1.3
		C768.7,167.9,752.8,167.9,734,167.9z M734,832.1c19.3,0,36,0,52.7,0c1.5,0,3.4-0.1,4.5-1c19-13.6,36.6-28.7,54.3-47.3
		c-21.6,0-40.9,0-60.1,0c-2.9,0-4.7,1.5-6.4,3.5C765.8,802.6,751.4,816.8,734,832.1z M740.6,860.7c-12.1,0-24.1-0.1-36.2,0
		c-3.1,0-6.4-0.8-9.3,1.2c-21.5,14.7-44.2,27.2-67.5,38.8C667.6,894.5,705.2,881.1,740.6,860.7z M627.4,99.3
		c18.9,9.1,37,18.9,54.4,30c8.8,5.6,16.9,11.6,28.7,10.2c10-1.3,20.3-0.3,30.5-0.3C705,118.8,667.4,105.2,627.4,99.3z"/>
	<path class="st1" d="M348.7,89.3c4.1,10.7,12.6,11.4,22.1,9.4c31.6-6.5,63.6-8.7,95.8-7.2c70.4,3.4,136.2,22.4,196.1,60.3
		c0.5,2,1.9,2.6,3.8,2.5c0,0-0.1-0.1-0.1-0.1c0.8,0.5,1.6,1.1,2.4,1.6c0,0-0.1-0.1-0.1-0.1c-0.9,3.9,2,5.8,4.2,7.9
		c11,10.6,20.7,22.2,30.4,34c34.8,42.6,59.2,90.7,75,143.1c3.7,12.3,8.9,24.5,8,37.9c-1.5-3.4-3.2-6.8-4.6-10.3
		C715.4,201,534.5,108.6,360.5,153C178.8,199.4,63.6,378.9,96.9,563.5c26.9,149,145.5,265.8,294.3,289.7
		c54.9,8.8,109,5.1,162.3-10.5c-1,1.1-1.8,2.8-3.1,3.4c-36.1,16.8-73.9,28-113.2,34c-16,2.5-32.1,3.2-48.1,4.4
		c-11.7,0.9-23.2,1.3-35,0.1c-17.9-1.8-35.8-2.9-53.8-4.3c0,0-0.6-0.2-0.6-0.2c-1.1-1.8-2.7-2-4.6-1.7c-33.7-12.3-64.3-30.3-92.5-52
		C114.7,758.8,61.1,670.1,44.6,560.5c-28.5-189.7,77.1-369.8,252.6-440.4c14.6-5.9,16.1-7.7,15.7-21.1
		C324.9,95.8,336.4,91,348.7,89.3z"/>
	<path class="st2" d="M786.3,378.7c0.9-13.4-4.3-25.6-8-37.9c-15.8-52.4-40.3-100.5-75-143.1c-9.6-11.8-19.4-23.4-30.4-34
		c-2.2-2.1-5.1-4.1-4.2-7.9c31.6,18.4,58.9,42.2,83,69.4c83.8,94.6,118.7,205.1,102,330.4c-23.4,175.8-156.5,314.7-330.8,346.7
		c-74.4,13.7-147.4,7.1-218.3-19.7c-1.4-0.5-2.7-1.4-4.1-2.1c17.9,1.4,35.9,2.4,53.8,4.3c11.7,1.2,23.2,0.9,35-0.1
		c16.1-1.3,32.1-2,48.1-4.4c39.3-6.1,77.1-17.3,113.2-34c1.3-0.6,2.1-2.2,3.1-3.4c37.4-12.1,72.3-28.8,104.2-52
		c10.3-7.5,11.5-11.5,6.9-23.4c9.5-8.3,18.9-16.6,28.4-24.9c8.2,5.2,15.4,4.5,22-3c73.7-84.5,102.7-182.3,87.8-293.4
		C799.7,423,792.8,400.9,786.3,378.7z"/>
	<path class="st3" d="M922.2,475.6c10.2,0,20.4,0.2,30.5-0.1c5.2-0.2,7.6,1.3,7.4,6.9c-0.3,11.8-0.3,23.5,0,35.3
		c0.1,5.8-2.6,6.8-7.6,6.7c-20-0.2-40.1-0.2-60.1,0c-4.9,0.1-6.7-1.2-6.5-6.4c0.4-12.1,0.4-24.2,0-36.3c-0.2-5.4,2-6.3,6.7-6.2
		C902.4,475.8,912.3,475.6,922.2,475.6z"/>
	<path class="st3" d="M875.6,398.9c22.9,0,45.4,0,67.9,0c3.6,0,4.9,1.7,5.5,5c2.3,12.5,4.8,24.9,7.2,37.4c0.7,3.7,0.1,5.9-4.5,5.9
		c-21-0.2-41.9-0.1-62.9,0c-3.2,0-5.5-0.5-6.1-4.3C880.4,428.4,878.1,414,875.6,398.9z"/>
	<path class="st3" d="M920.3,553c9.8,0,19.7,0.2,29.5-0.1c5.3-0.2,7.6,1.1,6.3,6.9c-2.6,11.8-5,23.6-6.9,35.5
		c-0.8,5-3.2,5.9-7.7,5.9c-20-0.2-40-0.1-60,0c-4.1,0-6.6-0.1-5.5-5.6c2.5-12.4,4.5-25,6.4-37.5c0.7-4.8,3.4-5.2,7.3-5.2
		C900,553.1,910.1,553,920.3,553z"/>
	<path class="st3" d="M849.8,322.1c22.3,0,43.6,0,64.9,0c3,0,5.5,0.3,6.9,3.5c6.4,14.4,12.9,28.8,17.5,44.6
		c-22.9,0-45.1-0.1-67.4,0.1c-3.5,0-5-1.3-6.1-4.4C860.5,351.6,855.3,337.4,849.8,322.1z"/>
	<path class="st3" d="M939.1,629.8c-4.7,15.9-11,30-17.3,44.1c-1.4,3-3.3,4.1-6.6,4c-21.6-0.1-43.2-0.1-65.4-0.1
		c5.6-15.5,11.1-30.2,16.3-45.1c1.2-3.3,3.5-3.1,6-3.1C894,629.8,915.9,629.8,939.1,629.8z"/>
	<path class="st3" d="M904.2,706.6c-9.6,17.2-20.1,31.8-31.1,46c-1.8,2.3-4.2,2.5-6.8,2.5c-19.7,0-39.4,0-61,0
		c5.6-8.6,12-15.5,15-23.7c8.1-22.2,23.4-28.3,45.6-25.1C877.8,708,890.3,706.6,904.2,706.6z"/>
	<path class="st3" d="M904.2,293.4c-22.8,0-43.5,0-64.2,0c-3.1,0-5.4-0.4-7-3.5c-8-15.1-17.5-29.3-28-45c22,0,42.6,0,63.1,0
		c2,0,3.6,0.8,4.9,2.4C884.1,261.5,894.5,276.1,904.2,293.4z"/>
	<path class="st3" d="M734,167.9c18.8,0,34.7,0,50.5,0c2.5,0,5.1-0.4,7.3,1.3c18.6,13.7,36.1,28.4,53.5,47c-21.6,0-41.1,0-60.6,0
		c-2,0-3.6-1-4.9-2.5C766.3,197.9,751.5,183.3,734,167.9z"/>
	<path class="st3" d="M734,832.1c17.4-15.3,31.8-29.5,45.1-44.9c1.7-2,3.5-3.5,6.4-3.5c19.2,0.1,38.5,0,60.1,0
		c-17.7,18.6-35.4,33.7-54.3,47.3c-1.2,0.8-3,1-4.5,1C770,832.1,753.3,832.1,734,832.1z"/>
	<path class="st3" d="M740.6,860.7c-35.3,20.4-72.9,33.8-113,40c23.3-11.6,46.1-24.1,67.5-38.8c2.9-2,6.2-1.1,9.3-1.2
		C716.4,860.7,728.5,860.7,740.6,860.7z"/>
	<path class="st3" d="M627.4,99.3c40,5.9,77.6,19.5,113.5,39.9c-10.2,0-20.5-1-30.5,0.3c-11.7,1.5-19.9-4.6-28.7-10.2
		C664.4,118.3,646.3,108.5,627.4,99.3z"/>
	<path class="st2" d="M666.4,154.3c-1.9,0.1-3.3-0.5-3.8-2.5C664.2,152.2,665.7,152.6,666.4,154.3z"/>
	<path class="st2" d="M295.2,878.4c1.9-0.3,3.5,0,4.6,1.7C298,880.1,296.3,880,295.2,878.4z"/>
	<path class="st2" d="M668.7,155.9c-0.8-0.5-1.6-1.1-2.4-1.6C667.1,154.8,667.9,155.3,668.7,155.9z"/>
	<path class="st0" d="M664.6,767.3c4.6,11.9,3.4,15.9-6.9,23.4c-31.8,23.1-66.8,39.9-104.2,52c-53.3,15.5-107.4,19.3-162.3,10.5
		C242.4,829.3,123.8,712.4,96.9,563.5c-33.3-184.6,82-364.1,263.6-410.5c174-44.5,354.9,48,421.2,215.4c1.4,3.5,3.1,6.9,4.6,10.3
		c6.5,22.2,13.4,44.3,16.5,67.4c14.9,111-14.2,208.8-87.8,293.4c-6.5,7.5-13.8,8.2-22,3c-6.5-10.4-6-14.6,3.3-25.1
		c105.7-120.7,109.7-298.3,9.3-423.2c-24.2-30.2-52.4-56.1-86.5-75.1L619,219c-0.3-1.2-1.3-1.6-2.4-1.6l0,0
		c-0.8-1.5-2.1-2.1-3.7-2.2c-2.6-1.7-5.2-3.6-7.9-5.1c-121.1-66.7-278.3-46.8-379.1,48C98,378.3,83.6,568.4,192.5,706
		c33.7,42.6,75.6,75,126.2,95.7c33.4,15.8,68.8,23.9,105.5,26.5c79.6,5.5,152.3-14.5,217.3-61.2C649.6,761.1,657,760.5,664.6,767.3z
		"/>
	<path class="st3" d="M619.1,218.9c34,19,62.2,45,86.5,75.1c100.4,125,96.3,302.6-9.3,423.2c-9.3,10.6-9.8,14.7-3.3,25.1
		c-9.5,8.3-18.9,16.6-28.4,24.9c-7.6-6.8-15-6.2-23.1-0.3c-65,46.7-137.7,66.7-217.3,61.2c-36.6-2.5-72.1-10.7-105.5-26.5
		c33.4,3.9,66.7,5,100.3,0.3c38.8-5.4,75.6-16.4,110.1-34.2c45.4-23.4,83.9-55.5,115.3-96c43.3-55.8,66.2-119.3,71.2-189.2
		c2.1-28.5,0.1-57-5.5-85.2c-11.6-58.7-36.3-111.1-74.9-157.1C629.7,233.5,620.8,228.8,619.1,218.9z"/>
	<path class="st4" d="M619.1,218.9c1.8,9.8,10.6,14.6,16.3,21.4c38.5,46,63.2,98.4,74.9,157.1c5.6,28.2,7.5,56.7,5.5,85.2
		c-5.1,70-28,133.5-71.2,189.2c-31.4,40.5-69.9,72.6-115.3,96c-34.6,17.8-71.4,28.8-110.1,34.2c-33.6,4.7-66.9,3.5-100.3-0.3
		c-50.5-20.7-92.5-53.1-126.2-95.7C83.6,568.4,98,378.3,225.8,258.1c100.8-94.8,258-114.7,379.1-48c2.7,1.5,5.3,3.4,7.9,5.1
		c0.7,1.7,2,2.3,3.7,2.2c0,0,0,0,0,0C617.4,217.9,618.2,218.5,619.1,218.9C619,219,619.1,218.9,619.1,218.9z M535.9,672.7
		c8.8-9.3,19.7-16.8,25.9-28.4c12.1,3.5,17.2,1.5,22.3-9.3c12.7-26.7,16.7-54.6,10.5-83.6c-13.4-62.2-64.9-104.2-128.8-105.2
		c-11.5-0.2-22.9,0.4-34.4-0.3c-13.8-0.8-23.3-11.3-23-24.3c0.3-13,10.4-22.6,24.3-22.9c9.5-0.2,19.1,0.3,28.6-0.1
		c13-0.7,21.5,4.8,27.3,16.5c13.9,27.7,44.8,38.5,71.8,25.6c26.8-12.8,37.9-44.1,25.3-72c-13.2-29.2-33.7-52.3-63.3-64.4
		c-15.7-6.4-20.8-13.9-20.6-30.6c0.3-25.9-20.4-46.4-46.4-50c-24.5-3.4-49.2,12-57.7,36c-3,8.6-3.6,17.5-2.7,26.4
		c0.7,7.7-2.1,10.8-9.3,13.5c-94.3,35.2-115.4,159.3-38.1,223.8c23.5,19.6,50.6,30,81.3,30.5c12.1,0.2,24.2-0.2,36.3,0.3
		c14.4,0.6,24.1,10.9,23.7,24.5c-0.3,13.2-10.1,22.5-24.3,22.8c-7.6,0.2-15.3-0.6-22.9,0.2c-17.1,1.7-27.6-4.8-35.2-20.8
		c-12.2-25.7-43.2-35.4-69.3-23.7c-25.5,11.4-38.1,40.4-28.4,66.9c12.2,33.2,34.1,58.4,66.6,72.3c14.9,6.3,20.7,12.8,20.1,29.7
		c-1,27.4,23.9,50.2,51.5,51c28.3,0.8,54.7-20.9,54.5-48.7c-0.1-18.4,5.6-27.6,22.8-33.2C537.2,690.8,538.5,685.8,535.9,672.7z"/>
	<path class="st3" d="M616.6,217.4c-1.7,0.1-3.1-0.5-3.7-2.2C614.5,215.4,615.9,215.9,616.6,217.4z"/>
	<path class="st3" d="M619,219c-0.8-0.5-1.6-1-2.4-1.5C617.8,217.4,618.7,217.7,619,219z"/>
	<path class="st0" d="M535.9,672.7c2.5,13.1,1.3,18.1-11.4,22.2c-17.2,5.5-22.9,14.8-22.8,33.2c0.2,27.8-26.2,49.5-54.5,48.7
		c-27.7-0.8-52.6-23.6-51.5-51c0.6-16.9-5.2-23.4-20.1-29.7c-32.4-13.8-54.4-39.1-66.6-72.3c-9.7-26.5,2.9-55.5,28.4-66.9
		c26.1-11.7,57-2,69.3,23.7c7.6,16,18.1,22.5,35.2,20.8c7.6-0.7,15.3,0,22.9-0.2c14.1-0.3,23.9-9.6,24.3-22.8
		c0.3-13.6-9.3-23.9-23.7-24.5c-12.1-0.5-24.2-0.1-36.3-0.3c-30.7-0.5-57.8-10.9-81.3-30.5c-77.3-64.5-56.2-188.7,38.1-223.8
		c7.2-2.7,10-5.8,9.3-13.5c-0.8-8.8-0.3-17.8,2.7-26.4c8.4-23.9,33.2-39.4,57.7-36c25.9,3.6,46.7,24.2,46.4,50
		c-0.2,16.7,4.9,24.2,20.6,30.6c29.6,12.1,50.2,35.2,63.3,64.4c12.6,28,1.4,59.2-25.3,72c-27,12.9-57.9,2.1-71.8-25.6
		c-5.8-11.6-14.3-17.1-27.3-16.5c-9.5,0.5-19.1-0.1-28.6,0.1c-13.9,0.3-24,9.9-24.3,22.9c-0.3,13,9.1,23.6,23,24.3
		c11.4,0.6,22.9,0.1,34.4,0.3c63.9,1,115.4,42.9,128.8,105.2c6.2,29,2.2,56.9-10.5,83.6c-5.1,10.8-10.2,12.8-22.3,9.3
		c-7.9-6.8-7-14.2-3-23c28.4-62.1-8.2-132.3-75.2-144.7c-16.7-3.1-33.6-1.3-50.5-1.7c-30.5-0.7-53.5-23.5-53.4-53.1
		c0.2-29.1,23.3-51.5,53.5-51.7c10.2-0.1,20.4,0,30.5,0c22.5,0,38.9,10,49.3,29.9c8.4,16,22.1,21.6,35.8,14.4
		c13.2-6.9,17.1-21.5,9.3-37c-14.4-28.6-37-47.1-68.1-55c-13.2-3.3-15.9-6.8-16-20.6c-0.1-8.6,0.2-17.2-0.3-25.8
		c-0.9-14.3-12-24.5-25.7-24c-13.3,0.4-23.8,10.8-24.4,24.5c-0.3,7.9-0.1,15.9-0.1,23.9c0,15.7-2.1,18.4-17.4,22.3
		c-45.4,11.5-78.7,55.2-77.1,101.3c1.7,49.7,35.7,90.2,83.1,99.3c17.4,3.3,34.9,1.6,52.3,1.9c30.5,0.7,53.5,23.5,53.2,53.2
		c-0.3,29.4-23.1,51.4-53.5,51.7c-8,0.1-15.9-0.4-23.9,0.1c-27.6,1.6-47-9.5-58.4-35.1c-5.8-12.8-19.7-17.5-32.2-12.3
		c-13.1,5.5-19,20-12.9,34.3c13.6,31.9,37.2,52.4,71,60.8c12.7,3.2,15.6,6.9,15.7,19.9c0,8-0.1,15.9,0,23.9
		c0.3,15.5,11,26.7,25.2,26.6c14,0,24.4-10.6,25-25.8c0.3-8.9,0.2-17.8,0.1-26.7c-0.1-9.8,4.6-15.6,14-17.5
		c8.8-1.8,17.2-4.7,24.9-9.1C521.9,664,529.4,665,535.9,672.7z"/>
	<path class="st1" d="M535.9,672.7c-6.6-7.7-14.1-8.6-22.9-3.7c-7.8,4.4-16.1,7.3-24.9,9.1c-9.5,1.9-14.2,7.7-14,17.5
		c0.1,8.9,0.3,17.8-0.1,26.7c-0.6,15.2-11,25.8-25,25.8c-14.3,0-24.9-11.1-25.2-26.6c-0.1-8,0-15.9,0-23.9c-0.1-13-3-16.7-15.7-19.9
		c-33.8-8.5-57.4-29-71-60.8c-6.1-14.2-0.2-28.8,12.9-34.3c12.5-5.2,26.4-0.5,32.2,12.3c11.5,25.5,30.9,36.7,58.4,35.1
		c7.9-0.5,15.9,0,23.9-0.1c30.3-0.2,53.2-22.3,53.5-51.7c0.3-29.6-22.7-52.5-53.2-53.2c-17.5-0.4-35,1.4-52.3-1.9
		c-47.4-9.1-81.3-49.6-83.1-99.3c-1.6-46.1,31.6-89.8,77.1-101.3c15.3-3.9,17.4-6.5,17.4-22.3c0-8-0.2-15.9,0.1-23.9
		c0.6-13.7,11.1-24.1,24.4-24.5c13.6-0.4,24.8,9.8,25.7,24c0.5,8.6,0.2,17.2,0.3,25.8c0.1,13.8,2.9,17.3,16,20.6
		c31.1,7.9,53.8,26.4,68.1,55c7.8,15.5,3.9,30-9.3,37c-13.7,7.2-27.4,1.6-35.8-14.4c-10.4-19.8-26.8-29.9-49.3-29.9
		c-10.2,0-20.4-0.1-30.5,0c-30.2,0.2-53.3,22.6-53.5,51.7c-0.2,29.6,22.9,52.5,53.4,53.1c16.8,0.4,33.7-1.4,50.5,1.7
		c67,12.4,103.7,82.6,75.2,144.7c-4.1,8.9-4.9,16.2,3,23C555.6,655.9,544.8,663.4,535.9,672.7z"/>
</g>
</svg>
