<?xml version="1.0" encoding="utf-8"?>
<!-- Generator: Adobe Illustrator 24.1.2, SVG Export Plug-In . SVG Version: 6.00 Build 0)  -->
<svg version="1.1" id="Capa_1" xmlns="http://www.w3.org/2000/svg" xmlns:xlink="http://www.w3.org/1999/xlink" x="0px" y="0px"
	 viewBox="0 0 1000 1000" style="enable-background:new 0 0 1000 1000;" xml:space="preserve">
<style type="text/css">
	.st0{fill:#010101;}
	.st1{fill:#C8E7FA;}
	.st2{fill:#424D63;}
	.st3{fill:#020202;}
	.st4{fill:#FCE580;}
</style>
<g>
	<path class="st0" d="M225.9,990.7c-10.4-5.6-14.4-14.2-13.6-25.9c0.7-10.2,0-20.4,0.2-30.7c0.3-23.9,11.1-41.6,32.3-52.4
		c4.8-2.5,6.1-4.9,6.1-10c-0.2-32.3-0.5-64.5,0-96.8c1.4-109.8,48.6-194.7,139.9-255.4c18.4-12.2,18.2-27.1-0.3-39.5
		c-90.9-60.5-138-145.2-139.6-254.6c-0.5-32.6-0.2-65.2,0-97.7c0-4.7-1.1-7.1-5.6-9.4c-21.7-10.9-32.5-28.8-32.8-53
		c-0.1-10.9-0.1-21.7,0-32.6c0.1-16.9,6.8-23.6,24-23.6c128.7,0,257.5,0,386.2,0c45.4,0,90.7,0,136.1,0c24.2,0,28.8,4.7,28.8,29.3
		c0,9.3,0.2,18.5,0,27.8c-0.5,23.4-11.2,40.9-31.9,51.7c-5.1,2.6-6.5,5.4-6.5,10.7c0.2,32.3,0.5,64.5,0,96.8
		c-1.6,109.4-48.8,194.1-139.5,254.7c-18.6,12.5-18.8,27-0.4,39.3c91.2,60.7,138.4,145.6,139.9,255.4c0.4,32.3,0.2,64.5,0,96.8
		c0,5.1,1.3,7.5,6.1,10c21.2,10.8,31.9,28.5,32.3,52.4c0.2,10.2-0.5,20.5,0.2,30.7c0.8,11.8-3.2,20.4-13.6,25.9
		C591.4,990.7,408.6,990.7,225.9,990.7z M499.8,875.7c67.7,0,135.4-0.1,203.1,0.1c5.9,0,8.2-1,8.1-7.6c-0.4-35.1,0.3-70.3-0.5-105.4
		c-1.1-43.5-13.1-84.2-35.1-121.8c-22.7-38.9-54.6-68.4-92.1-93c-35.1-23.1-34.7-72.1-0.4-96.2c3.9-2.7,8-5.2,12-7.9
		c66.3-46,105.8-108.5,114.2-189.3c4.3-41.4,0.8-83,1.9-124.5c0.1-5.6-2.2-6-6.7-6c-136.1,0.1-272.1,0.1-408.2-0.1
		c-6.4,0-7.1,2.3-7,7.7c0.3,35.1-0.5,70.3,0.4,105.4c1.3,49.3,16.2,94.5,43.8,135.5c21.7,32.3,50,57.6,82.7,78.5
		c22,14.1,30.8,38.2,24.8,63.3c-4.7,19.6-19,30.5-34.7,41.2C332.3,606,292.8,676,289.5,765.4c-1.3,33.5,0,67.1-0.5,100.6
		c-0.1,7.7,1.5,10,9.7,10C365.7,875.5,432.8,875.7,499.8,875.7z M499.3,86c74.4,0,148.9,0,223.3,0c20.6,0,26.1-6.1,26.8-27
		c0.3-9.3-2.3-11.6-11.6-11.6c-158.4,0.3-316.9,0.2-475.3,0.2c-2.6,0-5.1,0-7.7,0.1c-2.1,0-3.3,1-4,3.2c-6.2,19.7,4.8,35,25.2,35
		C350.5,86,424.9,86,499.3,86z M499.5,952.4c77.9,0,155.9,0,233.8,0c16.1,0,16.1,0,15.9-16.4c-0.2-13.7-7.8-21.9-21.1-21.9
		c-152-0.1-304.1,0-456.1-0.1c-7.4,0-12.9,2.9-17.3,8.4c-3.2,4-3.8,8.6-3.8,13.5c-0.1,16.4-0.2,16.4,15.9,16.4
		C344.3,952.4,421.9,952.4,499.5,952.4z"/>
	<path class="st1" d="M499.8,875.7c-67.1,0-134.1-0.2-201.2,0.2c-8.2,0-9.8-2.2-9.7-10c0.5-33.5-0.8-67.1,0.5-100.6
		C292.8,676,332.3,606,406,555.7c15.7-10.7,30-21.6,34.7-41.2c6-25.1-2.8-49.2-24.8-63.3c-32.7-20.9-61-46.2-82.7-78.5
		c-27.6-41-42.5-86.2-43.8-135.5c-0.9-35.1-0.2-70.3-0.4-105.4c0-5.4,0.6-7.7,7-7.7c136.1,0.2,272.1,0.2,408.2,0.1
		c4.5,0,6.9,0.4,6.7,6c-1,41.5,2.4,83.1-1.9,124.5c-8.4,80.8-47.8,143.3-114.2,189.3c-3.9,2.7-8,5.2-12,7.9
		c-34.3,24.1-34.7,73.1,0.4,96.2c37.4,24.6,69.3,54.1,92.1,93c22,37.6,34,78.3,35.1,121.8c0.9,35.1,0.1,70.3,0.5,105.4
		c0.1,6.6-2.2,7.6-8.1,7.6C635.2,875.6,567.5,875.7,499.8,875.7z M480.8,486.5c0,14,0,28.1,0,42.1c0.1,14.1,7.1,22.8,18.7,23
		c11.9,0.3,19.6-8.7,19.6-23.1c0.1-23,1.6-46.1-0.5-68.9c-1.9-20.3,6.9-32.4,22.7-41.9c1.9-1.1,3.7-2.4,5.6-3.6
		c16.1-9.9,31.1-21.3,45-34c54.3-49.6,87.1-108.4,80.7-184.6c-1.5-18.2-15.1-26.6-31.2-17.5c-1.7,0.9-3.2,2-4.9,3
		c-64.8,36.8-133.4,46.5-205.7,28c-25.8-6.6-49.8-17.4-72.6-31c-13.7-8.1-29.6-1.7-30.4,13c-1.9,36.2-0.6,71.9,16.1,105.6
		c23.9,48.3,60,85.2,104.4,114.5c9.9,6.5,19.8,12.7,28,21.4c3.3,3.5,4.7,7,4.6,11.9C480.6,458.4,480.8,472.5,480.8,486.5z
		 M499,837.4c50.5,0,100.9,0,151.4,0c14.6,0,21.4-7.3,22.1-21.7c2-38.1-14.8-64.2-49.3-79.4c-16.3-7.2-32.9-13.9-48.9-21.7
		c-20.9-10.1-42.1-19.9-57.2-38.8c-10.8-13.6-23.1-13.4-34.3-0.1c-8.9,10.7-19.6,18.9-31.6,25.9c-24,14-50.1,23.7-75.3,35.1
		c-33.4,15.1-49.8,40.2-48.5,77c0.6,16.9,6.9,23.6,24.1,23.6C400.6,837.4,449.8,837.4,499,837.4z M499.8,628.4
		c10.1,0.1,18.9-8.3,19.3-18.5c0.4-10.5-8.4-19.7-18.9-19.8c-10.2-0.1-18.9,8.3-19.3,18.4C480.5,619.1,489.3,628.3,499.8,628.4z"/>
	<path class="st2" d="M499.3,86c-74.4,0-148.9,0-223.3,0c-20.4,0-31.3-15.3-25.2-35c0.7-2.2,1.9-3.2,4-3.2c2.6-0.1,5.1-0.1,7.7-0.1
		c158.4,0,316.9,0.1,475.3-0.2c9.3,0,11.9,2.3,11.6,11.6c-0.7,20.8-6.2,27-26.8,27C648.2,86,573.8,86,499.3,86z"/>
	<path class="st2" d="M499.5,952.4c-77.6,0-155.2,0-232.9,0c-16.1,0-16,0-15.9-16.4c0-4.9,0.7-9.5,3.8-13.5c4.4-5.6,10-8.4,17.3-8.4
		c152,0.1,304.1,0,456.1,0.1c13.3,0,20.9,8.2,21.1,21.9c0.2,16.4,0.2,16.4-15.9,16.4C655.4,952.4,577.4,952.4,499.5,952.4z"/>
	<path class="st3" d="M480.8,486.5c0-14-0.2-28.1,0.1-42.1c0.1-4.9-1.4-8.4-4.6-11.9c-8.2-8.7-18.2-14.9-28-21.4
		c-44.4-29.4-80.5-66.2-104.4-114.5c-16.7-33.7-18-69.4-16.1-105.6c0.8-14.7,16.7-21.2,30.4-13c22.9,13.6,46.8,24.4,72.6,31
		c72.4,18.5,140.9,8.8,205.7-28c1.7-0.9,3.2-2,4.9-3c16-9,29.6-0.7,31.2,17.5c6.4,76.2-26.4,135.1-80.7,184.6
		c-13.9,12.7-28.9,24-45,34c-1.9,1.2-3.7,2.5-5.6,3.6c-15.8,9.5-24.6,21.5-22.7,41.9c2.1,22.8,0.5,45.9,0.5,68.9
		c0,14.5-7.7,23.4-19.6,23.1c-11.6-0.3-18.7-8.9-18.7-23C480.8,514.6,480.8,500.6,480.8,486.5z M365.9,226.1
		c-0.4,13.9,2,26.4,6.3,38.5c14.4,40.8,41.9,71.7,74.7,98.5c15.8,12.9,34.6,21.8,49.7,35.7c2.8,2.6,4.7,2.1,7.2-0.3
		c7.9-7.6,17.2-13.1,26.3-19.1c34.7-22.7,63.9-50.8,84.6-86.9c11.6-20.3,19.5-41.8,19.3-66.4C544.5,266.5,455.7,266.5,365.9,226.1z"
		/>
	<path class="st3" d="M499,837.4c-49.2,0-98.4,0-147.6,0c-17.2,0-23.4-6.7-24.1-23.6c-1.4-36.9,15.1-61.9,48.5-77
		c25.2-11.4,51.2-21.1,75.3-35.1c12-7,22.7-15.2,31.6-25.9c11.2-13.4,23.5-13.5,34.3,0.1c15.1,19,36.3,28.8,57.2,38.8
		c16.1,7.7,32.6,14.5,48.9,21.7c34.5,15.3,51.3,41.4,49.3,79.4c-0.8,14.3-7.6,21.7-22.1,21.7C600,837.4,549.5,837.4,499,837.4z
		 M499,799c41.2,0,82.3,0,123.5-0.1c3.3,0,8,2,9.6-1.3c1.8-3.9-1.4-7.8-3.8-11.2c-3-4.3-6.9-7.6-11.5-9.9
		c-8.2-4.3-16.5-8.3-24.9-12.1c-30.8-13.8-62.5-25.8-88.7-47.9c-3.1-2.6-4.8-1.5-7.2,0.5c-16.3,14.2-35.4,23.6-54.8,32.7
		c-17.6,8.2-35.4,15.9-53,24c-7,3.2-13.3,7.6-17.6,14.2c-1.9,2.9-4.3,6.5-2.7,9.7c1.6,3.2,5.7,1.4,8.6,1.4
		C417.3,799.1,458.2,799,499,799z"/>
	<path class="st3" d="M499.8,628.4c-10.5-0.1-19.3-9.3-18.9-19.8c0.4-10.2,9.1-18.5,19.3-18.4c10.5,0.1,19.3,9.3,18.9,19.8
		C518.7,620.1,509.9,628.5,499.8,628.4z"/>
	<path class="st4" d="M365.9,226.1c89.7,40.4,178.5,40.4,268.2,0c0.2,24.6-7.7,46.1-19.3,66.4c-20.8,36.2-49.9,64.3-84.6,86.9
		c-9.1,5.9-18.4,11.5-26.3,19.1c-2.5,2.4-4.4,2.9-7.2,0.3c-15.1-13.9-33.8-22.8-49.7-35.7c-32.9-26.9-60.3-57.8-74.7-98.5
		C368,252.5,365.5,240,365.9,226.1z"/>
	<path class="st4" d="M499,799c-40.8,0-81.7,0-122.5-0.1c-2.9,0-7.1,1.9-8.6-1.4c-1.6-3.2,0.9-6.8,2.7-9.7
		c4.3-6.6,10.6-11,17.6-14.2c17.6-8.1,35.5-15.8,53-24c19.3-9,38.5-18.5,54.8-32.7c2.4-2.1,4.1-3.2,7.2-0.5
		c26.2,22.2,57.9,34.2,88.7,47.9c8.4,3.8,16.7,7.8,24.9,12.1c4.5,2.4,8.5,5.7,11.5,9.9c2.4,3.4,5.6,7.3,3.8,11.2
		c-1.6,3.4-6.3,1.3-9.6,1.3C581.3,799.1,540.2,799,499,799z"/>
</g>
</svg>
