<?xml version="1.0" encoding="utf-8"?>
<!-- Generator: Adobe Illustrator 24.1.2, SVG Export Plug-In . SVG Version: 6.00 Build 0)  -->
<svg version="1.1" id="Capa_1" xmlns="http://www.w3.org/2000/svg" xmlns:xlink="http://www.w3.org/1999/xlink" x="0px" y="0px"
	 viewBox="0 0 1000 1000" style="enable-background:new 0 0 1000 1000;" xml:space="preserve">
<style type="text/css">
	.st0{fill:#040403;}
	.st1{fill:#E5AD4B;}
	.st2{fill:#F9EBAA;}
	.st3{fill:#F1DD64;}
	.st4{fill:#FAE67A;}
	.st5{fill:#FDFDFD;}
</style>
<g>
	<path class="st0" d="M7.1,552c6.3-10,16.2-9.9,26.2-9.3c5.2,0.4,8.5-0.7,11.3-6.1c33.1-64.3,66.5-128.4,99.7-192.6
		c0.7-1.4,1.3-2.8,2.4-5.4c-22.4,2.6-43.4,0.3-64-6.2c-11.6-3.7-22.7-8.7-33-15.2c-28.9-18.4-36.4-57.9-16.3-86.1
		c18.6-26.2,57.3-31.2,82.8-10.9c8.8,7,14.9,15.9,18,26.7c1.5,5.3,3.9,6.2,8.9,4.9c6-1.5,11.7-3.4,17.1-6.2
		c77.6-39.4,158.5-47.7,242.7-26.1c13.6,3.5,27.5,5.9,41.2,9.4c4.8,1.2,7,1.1,7.3-4.6c0.5-10.2,1.3-20.5,2.3-30.7
		c0.3-3.7-1.2-5.6-3.9-7.9c-30.6-25.5-33.6-62.2-7.8-92.2c13.2-15.3,26.6-30.5,40-45.6c11.6-13,24.5-13.1,36-0.1
		c13.4,15.1,26.9,30.2,40,45.5c25.8,30.1,22.8,66.9-7.7,92.3c-3.1,2.6-4.2,5-3.9,8.9c0.9,9.6,1.7,19.2,2.2,28.8
		c0.3,5.2,1.5,6.9,7.5,5.6c29.4-6.2,58.4-14.5,88.4-18.4c64.7-8.5,126.4,1.5,185.1,29.9c7.8,3.8,15.3,8,23.6,10.5
		c6.5,2,10.6,2.2,13.9-6.5c8.9-22.9,26.7-36.1,51.5-36.7c23.8-0.6,41.9,10.9,52.9,32.1c13.6,26.3,6.1,57.1-18.6,75.3
		c-26.7,19.8-57.6,25.2-90.1,24.2c-2.8-0.1-5.6-0.4-8.4-0.7c-0.3,4,2,6.5,3.5,9.3c32.3,62.5,64.8,124.9,97,187.5
		c2.9,5.6,6.1,8.2,12.5,7.4c4.4-0.5,9.1-0.6,13.4,0.3c7.9,1.5,12.6,6.7,12.1,14.9c-0.5,8.1-5.6,14.4-13.5,13.1
		c-15.9-2.5-22.8,5.2-27.7,18.6c-2.2,6.2-6.8,11.6-10.7,17c-7,9.7-11.7,10.9-23,6.3c-6.9-7.6-7-15.2-0.4-23.2c2.6-3.2,4.5-7,7-10.3
		c4.7-6.4,3-8.1-4.7-8.1c-67,0.2-134,0-201.1,0.1c-2,0-4.5-1.2-6.3,1.8c1.5,2.6,2.9,5.4,4.5,8.1c30.1,49,90.2,69.7,145.1,49.7
		c9.3-3.4,17.4-4,24.2,4.4c2.2,13.9,0,17.6-13.1,22.5c-73.5,27.7-156.3-6-189.1-77.4c-3.1-6.8-6.4-10.5-14.1-9.1
		c-2.5,0.5-5.1,0.2-7.7,0c-9.2-0.5-14.8-6-14.8-14.3c0-8.1,6-15.6,14.7-14.2c16.7,2.7,22.9-6.5,29.5-19.4
		c33.3-65.6,67.4-130.9,101.6-196c3.6-6.8,2.1-8.8-4.1-11.6c-54.5-24.5-110.5-28.2-168.1-13.8c-18.9,4.7-38,8.8-57.2,12.8
		c-5.8,1.2-8.5,2.8-8,9.7c6.4,82.5,12.5,165.1,18.6,247.6c4.2,56.6,8.3,113.3,12.1,169.9c0.6,8.6,1.6,12.8,12.1,14.8
		c32.7,6.2,51.1,40.9,40.4,72.6c-0.9,2.6-3.1,5-2.1,9.1c14.4,0,29-0.2,43.7,0c42.6,0.8,76.7,34.9,77.7,77.3
		c0.6,24.9-16.2,43.6-41.1,45.6c-2.2,0.2-4.5,0.1-6.7,0.1c-140.6,0-281.1,0-421.7,0c-30.9,0-49.3-19.3-47.1-50
		c1.9-26.4,14.9-46.6,37-60.9c12.3-8,26.1-12.1,40.9-12.1c14.4,0,28.8,0,44.3,0c-4.7-13-8.2-25.4-5.1-38.8
		c5.4-23.2,22.9-40.5,46.6-43.8c6-0.8,7.1-3.5,7.5-8.6c5.2-73.9,10.5-147.8,15.9-221.7c4.8-65.6,9.5-131.2,14.8-196.7
		c0.8-9.5-1-13-11-14.8c-31.8-5.9-62.8-15.8-95-19.3c-45-4.9-88.1,2.8-129.1,22c-5.2,2.4-5,4.7-2.7,9.2
		c36.5,70.1,73,140.2,109.2,210.5c2.4,4.7,5.2,6.6,10.4,6.1c4.5-0.4,9-0.4,13.5,0.1c8.3,0.9,13.6,7,13.4,14.8
		c-0.2,8-5.7,14.7-14.1,13.5c-14.8-2.1-21.9,4.5-26.5,17.4c-2.8,7.8-8.3,14.4-13.4,21c-7.9,10.2-12.1,11.2-23.8,5.7
		c-6.4-8-5.6-15.6,0.9-23.4c4.9-5.8,9.1-12.1,12.5-20.4c-4,0-6.8,0-9.5,0c-65.5,0-130.9-0.1-196.4,0c-3,0-7.2-1.6-8.9,1.2
		c-1.8,3,1.7,5.8,3.2,8.4c29.1,48,88.2,69.4,142.4,51c9.6-3.3,17.4-3.4,23.9,5.2c2.2,12.8-0.8,17.7-13.6,22.2
		c-72.3,25.2-153.5-9.2-185.3-78.9c-3.1-6.8-6.2-10.4-14-9.1c-8.9,1.5-16.7-0.9-22.8-8C7.1,559.7,7.1,555.8,7.1,552z M509.7,838.4
		c25.6,0.1,51.3,0.6,76.9,0.2c15.4-0.3,26.9-12.6,26.9-27.1c0-14.3-10.9-26.5-26-26.8c-29.1-0.5-58.3,0-87.5,0.1
		c-28.8-0.1-57.7-0.7-86.5-0.2c-15.7,0.2-26.9,12.3-26.9,26.9c0,15,11.8,27,27.8,27.2C446.2,838.9,477.9,838.5,509.7,838.4z
		 M625.2,932.5c29.5,0.1,59,0.5,88.5,0.3c11.1-0.1,16.1-6,15.9-17.2c-0.6-24.7-21.7-47-46.6-47.6c-26.3-0.7-52.6,0-78.9,0.1
		c-95.6-0.1-191.2-0.4-286.8-0.1c-21.6,0.1-40.6,17.5-45.7,39c-4.3,18.3,1.8,25.9,20.7,25.9c107.5,0,215,0,322.5,0
		C618.2,932.9,621.7,932.6,625.2,932.5z M499.8,755.2c16.7,0,33.4-0.2,50,0.1c6.3,0.1,9.1-0.8,8.4-8.2c-2.7-32-4.6-64-7-96
		c-4.9-66.5-9.8-133-14.7-199.6c-3-40.6-6.2-81.2-8.9-121.8c-0.5-6.9-2.6-8-9.1-7.5c-12.5,0.8-25,0.7-37.5,0c-5.9-0.3-8.2,0.4-8.7,7
		c-2,32-4.7,64-7,95.9c-4.3,57.9-8.6,115.8-12.8,173.7c-3.6,49.6-7,99.2-10.8,148.7c-0.5,7,2,7.9,7.9,7.8
		C466.4,755,483.1,755.2,499.8,755.2z M875.6,310.5c17.5-0.9,38.6-4,57.2-16.4c13.1-8.8,18.6-21.2,15.5-34.5
		c-3-13-14.4-22.8-27.3-23.2c-13-0.5-24.2,8.4-28.6,22.7c-5.8,19-15.7,25.1-35.2,22.1c-11.9-1.8-22.9-5.9-33.5-11.2
		c-43.7-21.8-89.8-33.8-138.8-33.7c-31.7,0.1-62.3,7.2-92.9,14.2c-36.2,8.2-72.2,18.4-110,14.6c-27.5-2.7-54.4-9.3-80.9-16.4
		c-79.8-21.2-156.2-13.8-229.7,23.8c-7.4,3.8-15.4,6.4-23.6,7.9c-25,4.7-32.4,0.2-40.7-24c-4-11.9-14.6-19.7-26.8-19.8
		c-12.6-0.1-23.4,7.9-27.3,20.3c-4.8,15.2,0.6,29.6,15.2,37.6c39.6,21.7,79.6,21.5,119.6,0.9c38-19.5,78.1-29.8,120.9-30.7
		c40.7-0.9,79.3,10.2,118.3,19c34,7.7,67.9,13.4,102.9,8.4c26.4-3.7,52.3-9.8,78-16.5c72.2-18.7,141.5-13.2,208.2,21.4
		C833.2,306,851.7,310.7,875.6,310.5z M285.8,542.4c-35.6-68.6-70.4-135.7-105.9-204c-35.7,68.7-70.6,136-105.9,204
		C144.9,542.4,214.5,542.4,285.8,542.4z M820.3,338.4c-35.6,68.6-70.5,135.7-105.8,203.8c71.1,0,140.8,0,211.5,0
		C890.8,474.3,856,407.1,820.3,338.4z M500.9,167.4c8-0.8,18.1,2.5,27-1.3c17.6-7.4,24.5-31.9,12.8-47.5
		c-11.5-15.3-25-29.3-37.5-43.8c-2.1-2.4-3.7-3.1-6.1-0.3c-12.7,14.9-26.2,29.1-38.2,44.6c-7.6,9.8-7.4,21.8-1.2,32.7
		c5.8,10.4,14,17.2,27.1,15.7C489.7,166.9,494.6,167.4,500.9,167.4z M519.2,219.1c0-1.6,0.1-3.2,0-4.8c-0.9-18-0.9-18-19.2-18
		c-18.2,0-18.2,0-19.1,18c-1.2,22.8-1.2,22.8,22.1,22.3C520.3,236.4,520.3,236.4,519.2,219.1z"/>
	<path class="st1" d="M242.7,637.3c-6.5-8.6-14.2-8.5-23.9-5.2c-54.2,18.3-113.2-3-142.4-51c-1.6-2.6-5-5.5-3.2-8.4
		c1.7-2.8,5.9-1.2,8.9-1.2c65.5,0,130.9,0,196.4,0c2.8,0,5.5,0,9.5,0c-3.4,8.3-7.6,14.6-12.5,20.4c-6.5,7.7-7.3,15.3-0.9,23.4
		C264.8,623.8,255.1,632.5,242.7,637.3z"/>
	<path class="st1" d="M886.3,635.5c-6.8-8.4-14.8-7.8-24.2-4.4c-54.9,20-115-0.7-145.1-49.7c-1.7-2.7-3.1-5.5-4.5-8.1
		c1.8-3,4.3-1.8,6.3-1.8c67,0,134,0.1,201.1-0.1c7.7,0,9.4,1.7,4.7,8.1c-2.4,3.4-4.3,7.1-7,10.3c-6.5,8-6.5,15.6,0.4,23.2
		C907.7,620.9,898.9,630.8,886.3,635.5z"/>
	<path class="st2" d="M499.8,755.2c-16.7,0-33.4-0.2-50,0.1c-5.9,0.1-8.5-0.8-7.9-7.8c3.9-49.6,7.2-99.1,10.8-148.7
		c4.2-57.9,8.5-115.8,12.8-173.7c2.4-32,5-63.9,7-95.9c0.4-6.6,2.7-7.3,8.7-7c12.5,0.7,25,0.8,37.5,0c6.5-0.4,8.7,0.6,9.1,7.5
		c2.7,40.6,5.9,81.2,8.9,121.8c4.9,66.5,9.8,133,14.7,199.6c2.3,32,4.3,64,7,96c0.6,7.4-2.1,8.4-8.4,8.2
		C533.2,755,516.5,755.2,499.8,755.2z"/>
	<path class="st3" d="M875.6,310.5c-23.8,0.2-42.4-4.6-59.7-13.5c-66.6-34.5-136-40.1-208.2-21.4c-25.7,6.7-51.6,12.7-78,16.5
		c-35,5-68.9-0.7-102.9-8.4c-39-8.9-77.6-20-118.3-19c-42.8,1-82.9,11.2-120.9,30.7c-39.9,20.5-80,20.7-119.6-0.9
		c-14.6-8-20-22.4-15.2-37.6c4-12.4,14.7-20.4,27.3-20.3c12.2,0.1,22.8,7.9,26.8,19.8c8.2,24.3,15.7,28.7,40.7,24
		c8.2-1.5,16.2-4.1,23.6-7.9c73.5-37.6,149.9-45,229.7-23.8c26.5,7.1,53.4,13.6,80.9,16.4c37.8,3.8,73.8-6.4,110-14.6
		c30.6-7,61.2-14.1,92.9-14.2c49-0.1,95.1,11.9,138.8,33.7c10.7,5.3,21.7,9.4,33.5,11.2c19.5,3,29.4-3,35.2-22.1
		c4.3-14.3,15.6-23.2,28.6-22.7c12.9,0.5,24.3,10.2,27.3,23.2c3,13.3-2.4,25.7-15.5,34.5C914.2,306.6,893,309.6,875.6,310.5z"/>
	<path class="st4" d="M625.2,932.5c-3.5,0.1-7,0.4-10.6,0.4c-107.5,0-215,0-322.5,0c-18.9,0-25-7.7-20.7-25.9
		c5.1-21.5,24.2-38.9,45.7-39c95.6-0.3,191.2,0,286.8,0.1C621.1,886.2,628.2,907.7,625.2,932.5z"/>
	<path class="st5" d="M285.8,542.4c-71.3,0-140.9,0-211.8,0c35.3-68,70.2-135.3,105.9-204C215.4,406.7,250.2,473.8,285.8,542.4z"/>
	<path class="st5" d="M820.3,338.4C856,407.1,890.8,474.3,926,542.2c-70.8,0-140.4,0-211.5,0C749.8,474.1,784.6,407,820.3,338.4z"/>
	<path class="st3" d="M625.2,932.5c3-24.8-4.1-46.2-21.1-64.4c26.3-0.1,52.6-0.8,78.9-0.1c24.9,0.7,46,22.9,46.6,47.6
		c0.3,11.1-4.7,17.1-15.9,17.2C684.2,932.9,654.7,932.6,625.2,932.5z"/>
	<path class="st4" d="M509.7,838.4c-31.7,0.1-63.5,0.5-95.2,0.2c-16.1-0.1-27.8-12.2-27.8-27.2c0-14.5,11.2-26.6,26.9-26.9
		c28.8-0.5,57.7,0.1,86.5,0.2c5.4,8.3,10.1,16.7,9.7,27.1C509.4,820.7,509.7,829.5,509.7,838.4z"/>
	<path class="st3" d="M500.9,167.4c-6.4,0-11.2-0.5-16,0.1c-13.1,1.6-21.3-5.3-27.1-15.7c-6.1-11-6.4-22.9,1.2-32.7
		c12-15.4,25.4-29.7,38.2-44.6c2.4-2.8,4-2.1,6.1,0.3c12.5,14.6,26,28.5,37.5,43.8c11.7,15.6,4.8,40.1-12.8,47.5
		C519.1,169.9,508.9,166.6,500.9,167.4z"/>
	<path class="st3" d="M509.7,838.4c0-8.9-0.2-17.7,0.1-26.6c0.4-10.4-4.3-18.8-9.7-27.1c29.2-0.1,58.3-0.7,87.5-0.1
		c15.1,0.3,26,12.5,26,26.8c0,14.6-11.5,26.9-26.9,27.1C561,839,535.3,838.5,509.7,838.4z"/>
	<path class="st2" d="M519.2,219.1c1.1,17.3,1.1,17.3-16.3,17.6c-23.2,0.5-23.2,0.5-22.1-22.3c0.9-18,0.9-18,19.1-18
		c18.3,0,18.3,0,19.2,18C519.3,215.9,519.2,217.5,519.2,219.1z"/>
</g>
</svg>
