<?xml version="1.0" encoding="utf-8"?>
<!-- Generator: Adobe Illustrator 24.1.2, SVG Export Plug-In . SVG Version: 6.00 Build 0)  -->
<svg version="1.1" id="Capa_1" xmlns="http://www.w3.org/2000/svg" xmlns:xlink="http://www.w3.org/1999/xlink" x="0px" y="0px"
	 viewBox="0 0 1000 1000" style="enable-background:new 0 0 1000 1000;" xml:space="preserve">
<style type="text/css">
	.st0{fill:#030303;}
	.st1{fill:#FCFCFC;}
	.st2{fill:#FCD744;}
	.st3{fill:#D6D5D8;}
	.st4{fill:#FAAA08;}
	.st5{fill:#FEFEFE;}
</style>
<g>
	<path class="st0" d="M434.5,9.3c8.1,3.7,17,3.4,25.4,5.7c48.4,13.5,85.7,41.4,110.7,85c4.4,7.6,8,9.7,17,7.3
		c60.9-16.3,124.2,19.7,142,80.4c2,7,5.3,10.9,12.3,13.9c58.9,24.9,74.9,101.8,31.3,149.6c-4,4.3-5.4,8.3-5.6,14.2
		c-0.8,31.1-14.9,54.1-43.2,67.8c-5.1,2.5-9.4,17.1-5.8,21.2c2.2,2.5,5.5,1.1,8.2,1.1c38.7,0.1,77.3-0.1,116,0.1
		c35.8,0.2,62.3,20,71.6,53.4c1.9,6.7,2.8,13.8,2.8,20.8c0.2,82.4,0.3,164.8,0,247.2c-0.1,36.5-20.8,63.2-55,72.5
		c-7.7,2.1-15.7,2.4-23.7,2.4c-37.1,0-74.1,0.2-111.2-0.2c-7.3-0.1-10.6,1.6-9.3,9.3c0.4,2.5,0.3,5.1,0,7.6
		c-0.6,4.9,0.7,6.9,6.3,7.8c31.4,4.8,53.1,30.4,51.1,59.2c-2.3,32.3-26.5,54.9-59.8,55c-180.5,0.1-361,0.1-541.4,0
		c-33.2,0-57.2-22.8-59.4-55.3c-2-28.4,19.9-54.2,50.5-58.8c5.9-0.9,6.9-2.9,6.9-8.3c-0.1-159.4-0.1-318.8,0-478.2
		c0-5.9-1.4-8.3-7.6-9.1c-42.5-5.6-74-37.9-80.5-76.2c-7.5-44.2,12.6-82.3,52.1-102.1c4.4-2.2,6.7-5.2,8.3-9.6
		c16.9-45.6,49.5-72.1,97.7-79.2c5.1-0.7,9.2-1.6,12.2-7.2c29-54.4,74.6-85.7,135.1-95.7c1.3-0.2,2.5-0.3,2.8-1.9
		C406.4,9.3,420.5,9.3,434.5,9.3z M201.3,406.2c-0.1,3.2-0.4,6.4-0.4,9.5c0,149.7,0.1,299.5-0.2,449.2c0,8.5,1.8,11,10.8,11
		c114.3-0.3,228.6-0.2,342.9-0.2c14.7,0,14.7,0,15.9,13.7c-1.4,15.1-1.4,15.1-17.3,15.1c-124.2,0-248.4,0-372.5,0
		c-3.5,0-7-0.2-10.5,0.2c-21,2.2-32.8,24.7-22.4,42.7c6.4,11.1,16.6,14.6,29.1,14.6c179.1-0.1,358.2-0.1,537.3-0.1
		c1.9,0,3.8,0,5.7-0.1c15.1-1.1,26.9-13.4,27.2-28.2c0.3-14.7-11.3-27.5-26.4-28.9c-5.1-0.5-10.2-0.2-15.3-0.2c-15.2,0-15.2,0-16-15
		c0.1-2.2,0.3-4.5,0.3-6.7c0-137.5,0-275,0-412.4c0-2.2-0.2-4.4-0.3-6.7c0.1-1.3,0.4-2.5,0.3-3.8c-0.2-6.3,1.3-13.5-1.2-18.8
		c-2.1-4.5-10.2-1.6-15.1-4.2c-6.7-3.6-10.7-1.7-15.8,4.3c-21.5,25.3-49.2,35.1-81.5,26.6c-34.2-9-54-32.1-59.6-67.1
		c-2.8-17.9-2.6-17.4-20.8-18c-8-0.3-9.3,2.5-9.2,9.6c0.4,27.1,0.1,54.3,0.2,81.4c0.1,11.2-2.7,21.5-9.5,30.5
		c-11.6,15.3-31.4,21.7-49.5,16.3c-18.6-5.6-31.7-21.8-32.7-41.7c-0.6-12.1,0.1-24.3-0.4-36.4c-0.4-10.3-7.5-17.2-16.9-17.2
		c-8.9-0.1-15.9,6.3-17.2,16c-0.4,2.8-0.2,5.7-0.2,8.6c0,42.2,0,84.3,0,126.5c0,25.2,0.6,50.5-0.3,75.7
		c-1.5,42.4-42.7,70.2-82.8,56.4c-25.5-8.7-41.4-32.6-41.5-62.6c-0.1-83.4,0-166.7,0-250.1c0-12.7,0-12.7-12.5-12.7
		C199.7,382.8,199.7,382.8,201.3,406.2z M312,78.5c-10.7,8.3-18.1,19.4-25.9,30.2c-4.3,6-2.5,7.7,3.6,9.2c18.9,4.9,35,14.9,49,28.3
		c23.3,22.2,34.2,50,36.7,81.6c-0.2,2.7-1.4,3.8-4.2,3.7c-4.5-0.2-9-0.6-13.4,0.1c-8.8,1.3-11.5-1.7-12.6-10.8
		c-5.3-44-39.9-76.2-83.6-79.3c-41.4-2.9-80.3,24.8-91.4,66.4c-2.8,10.4-7.4,15.4-17.5,19c-26.9,9.7-44.9,39.3-41.5,65.5
		c4.3,32.8,26.5,56.7,57.2,60.2c28.6,3.3,57.4,1.1,86.1,1.1c8.2,0,9.7,2.4,9.6,10c-0.3,92.6-0.2,185.2-0.2,277.9
		c0,3.5-0.1,7,0.2,10.5c2.1,21.5,22,35.3,42.6,29.7c14.9-4.1,24.2-17.2,24.2-34.9c0.1-67.1,0-134.1,0.1-201.2
		c0-28.8,19.3-49.5,45.8-49.5c26.7-0.1,45.9,20.4,46.1,49.1c0.1,9.9-0.2,19.8,0.1,29.7c0.2,7.9,3.5,14.3,11.3,17.2
		c12.1,4.5,23-4,23.1-18.5c0.2-37.4,0.1-74.7,0.1-112.1c0-4-1.2-8,5.8-7.9c24.9,0.4,49.8,0.3,74.7,0.1c4.7,0,5.9,1.5,5.8,6
		c-0.3,10.9-0.5,21.7,0.1,32.6c1.7,33,32.6,56,64.4,47.7c20.8-5.4,32.3-20.3,38.7-40c3.5-10.7,4-10.8,12.8-3.5
		c10.9,9.1,22.6,15.8,37.3,14.4c29.7-2.9,46.5-27.4,39.7-58.5c-1.2-5.3-0.1-7.7,4-10.9c21.9-17.4,32.8-39.4,26.9-67.9
		c-3.5-17.8-13.7-31.1-28.3-41.4c-4.8-3.4-6.7-2.6-8,3.3c-4.3,20-13.9,37.4-27.7,52.6c-22.4,24.6-51,36.1-83.4,39.3
		c-3.4-0.1-4-2.2-3.9-5.1c0.2-5.1,0.5-10.3-0.1-15.3c-0.9-6.9,1.4-9.7,8.5-9.9c13.3-0.4,25.6-4.8,36.9-11.7
		c27.1-16.3,44.6-40.8,43.6-71.8c-1.3-41-34.1-74.3-73.5-80c-12.7-3.1-25.1-2-37.7,1c-5.8,1.4-6.6,3.2-5,9
		c7.9,28.7,7.6,57.6,1.3,86.7c-4.4,20.2-13.2,38.3-22.7,56.2c-6.2,0-9.7-5.4-14.9-7.5c-9.9-4-9.3-9.1-4.5-17.9
		c47.7-86.2-2.9-198-99.2-218.9C397.7,31.1,351.4,42.4,312,78.5z M888.6,653.9c0-41.2,0.2-82.4-0.1-123.6
		c-0.1-26.2-17.1-45.3-41.7-45.6c-40.9-0.5-81.8,0-122.7-0.1c-4.6,0-6,1.4-5.9,6c0.3,11.2,0.5,22.4-0.1,33.5c-0.3,6.4,1.8,8,8,7.9
		c22.4-0.3,44.7,0,67.1,0.2c30,0.2,47.3,17.7,47.4,47.9c0.1,48.9,0.1,97.8,0,146.6c0,31.1-17.6,48.5-48.7,48.8
		c-21.7,0.1-43.4,0.5-65.2,0.2c-6.4-0.1-9,1.2-8.6,8.2c0.6,10.2,0.6,20.5,0,30.6c-0.4,6.8,1.8,8.5,8.5,8.5
		c37.4-0.2,74.7,0.2,112.1,0.2c32.5,0,49.8-17.3,49.8-49.6C888.6,733.7,888.6,693.8,888.6,653.9z M718.1,653.4
		c0,28.7,0.1,57.4-0.1,86.2c0,5,0.8,7.4,6.7,7.3c23-0.3,45.9,0,68.9-0.2c12.9-0.1,18.3-5.4,18.3-17.9c0.1-50.1,0.1-100.2,0-150.3
		c0-12.3-5.3-17.3-17.7-17.4c-23-0.1-46,0.2-68.9-0.2c-5.9-0.1-7.4,1.5-7.4,7.4C718.3,596.6,718.1,625,718.1,653.4z"/>
	<path class="st1" d="M767.8,273.8c5.9,28.5-5,50.5-26.9,67.9c-4.1,3.2-5.1,5.6-4,10.9c6.7,31.1-10,55.6-39.7,58.5
		c-14.7,1.4-26.4-5.3-37.3-14.4c-8.8-7.4-9.2-7.3-12.8,3.5c-6.5,19.7-17.9,34.6-38.7,40c-31.8,8.3-62.6-14.7-64.4-47.7
		c-0.6-10.8-0.4-21.7-0.1-32.6c0.1-4.5-1.1-6-5.8-6c-24.9,0.2-49.8,0.4-74.7-0.1c-7-0.1-5.8,3.9-5.8,7.9c0,37.4,0.1,74.7-0.1,112.1
		c-0.1,14.5-11,23-23.1,18.5c-7.8-2.9-11.1-9.3-11.3-17.2c-0.2-9.9,0-19.8-0.1-29.7c-0.2-28.7-19.4-49.2-46.1-49.1
		c-26.5,0.1-45.8,20.7-45.8,49.5c-0.1,67.1,0,134.1-0.1,201.2c0,17.7-9.3,30.8-24.2,34.9c-20.5,5.6-40.4-8.2-42.6-29.7
		c-0.3-3.5-0.2-7-0.2-10.5c0-92.6-0.1-185.2,0.2-277.9c0-7.7-1.4-10-9.6-10c-28.7,0-57.5,2.1-86.1-1.1
		c-30.6-3.5-52.9-27.4-57.2-60.2c-3.4-26.2,14.6-55.8,41.5-65.5c10.1-3.6,14.7-8.6,17.5-19c11.1-41.7,50-69.3,91.4-66.4
		c43.7,3.1,78.3,35.3,83.6,79.3c1.1,9.1,3.8,12.1,12.6,10.8c4.4-0.7,8.9-0.3,13.4-0.1c2.8,0.1,4.1-1,4.2-3.7c24.7-5,37-34.6,31-54.3
		c-8.3-27-25.6-48-46.4-66.3c-14.2-12.5-31.5-20-48-28.7c39.4-36.1,85.7-47.4,137.3-36.2c96.3,21,146.9,132.7,99.2,218.9
		c-4.9,8.8-5.4,13.9,4.5,17.9c5.2,2.1,8.7,7.5,14.9,7.5c36.3,5,57.8-11.6,65-47.2c2.8-13.7,5.5-27.4,5.1-41.5
		c3.2,1.8,6.1,4.7,6.7,7.8c2.2,12.8,10.6,12.3,20,10.2c1.2-0.3,2.5-0.6,3.8-0.5c9,0.2,8.9-4.6,6.7-11.3c-6.5-20.3-20.5-33.1-39.6-41
		c1.7-10.1-3.6-19.4-3.6-29.3c39.4,5.7,72.2,39,73.5,80c1,31-16.6,55.5-43.6,71.8c-11.3,6.8-23.6,11.3-36.9,11.7
		c-7.1,0.2-9.3,3-8.5,9.9c0.6,5,0.2,10.2,0.1,15.3c-0.1,2.9,0.5,5,3.9,5.1c-0.2,3.7,1.5,6.7,3.4,9.7c14,22.1,37.8,28.6,62.4,16.7
		c32.8-15.9,57.5-40.2,74.3-72.5C762.1,278.3,762.6,273.8,767.8,273.8z M240,325.4c15.6,0,31.3,0,46.9,0c20.8,0,20.5,0,20.6-21.1
		c0-6.5-2-7.9-8.1-7.8c-38,0.3-75.9,0.1-113.9,0.1c-2.6,0-5.1,0.2-7.6-0.2c-8.7-1.4-11.4-7.7-6.2-14.8c0.9-1.3,2.6-2.3,2.1-3.9
		c-2.7-8.3-2.2-21.3-9-23.8c-6.5-2.4-14.7,7-19.5,14.5c-1.9,2.9-3.2,6.2-4.2,9.6c-6.7,24.1,11.5,46.7,38.5,47.3
		C199.8,325.7,219.9,325.4,240,325.4z M414.5,80.9c0,13.5,0,13.5,13.2,15.6c28.3,4.4,50.3,18.6,66.4,42.4c3.5,5.1,3.9,14.4,9.9,15.1
		c5.8,0.7,12.2-4.6,18.6-6.5c5.9-1.7,6.3-4.1,3.7-9.4c-20.1-40.4-52.3-64-97.1-70.1C414.5,65.9,414.5,66.1,414.5,80.9z M256.4,186.9
		c0-3.5-0.3-5.5,0.1-7.3c2-10-3.4-10.2-10.7-8.5c-20.9,4.7-36.3,16.2-45.2,36c-5.3,11.9-5.3,12,6.8,14.5c3.4,0.7,6.9,1.3,10.3,2.1
		c4.5,1.1,7.2,0.6,9.2-4.8c3.2-8.7,10-15.8,18.8-17.6C255.8,199.2,258.7,194.6,256.4,186.9z M375.1,296.6c-8,0-16,0.4-23.9-0.1
		c-6.2-0.4-6.5,3.6-5.4,7.2c2.2,7.1-6.4,19.2,4.5,21c15.8,2.7,32.5,0.6,48.7,0.7c2.8,0,4.2-1,4.2-3.9c-0.2-7.9,1.7-16.9-1.4-23.4
		c-2.2-4.5-11.8-0.9-18-1.5C380.8,296.4,378,296.6,375.1,296.6z"/>
	<path class="st2" d="M689,463.6c0.1,2.2,0.3,4.4,0.3,6.7c0,137.5,0,275,0,412.4c0,2.2-0.2,4.5-0.3,6.7c-19.2,0-38.4,0-57.6,0
		c-1.2-13.7-1.2-13.7-15.4-13.7c-3.1,0-6.3,0.3-9.4-0.1c-6.4-0.8-9.5,1.3-8.4,8.2c0.3,1.8-0.2,3.7-0.4,5.6c-9.2,0-18.4,0-27.5,0
		c-1.2-13.7-1.2-13.7-15.9-13.7c-114.3,0-228.6-0.1-342.9,0.2c-8.9,0-10.8-2.5-10.8-11c0.3-149.7,0.2-299.5,0.2-449.2
		c0-3.2,0.2-6.4,0.4-9.5c8.4-1.4,11,2.1,11,10.6c-0.3,76.6,0.1,153.3-0.3,229.9c-0.2,29.1,10.4,52.8,33,70.8
		c41.5,33,101.4,19.2,126.6-24c9.7-16.6,12.7-34.5,12.9-53c0.4-37.4,0.1-74.7,0.2-112.1c0-2.1-1-4.8,1.3-6.1
		c2.2-1.3,3.2,1.1,4.4,2.5c34.2,37.1,98,24,115.1-23.5c5.3-14.8,4.1-30.5,6.8-48.9c4.6,5.4,7.7,9.4,11.2,12.9
		c38.4,38.4,103.5,39.1,142.6,1.5c4.1-3.9,7.6-6.2,13.5-3.8C682.3,464.1,685.9,463.5,689,463.6z M542.9,490.6
		c-16.3,0.2-14.3-2-14.4,12c-0.1,16.8,0,16.8,12.4,16.8c16.4,0,16.4,0,16.4-12.9C557.2,490.6,557.2,490.6,542.9,490.6z M641.5,548
		c-0.3-17.1,2.1-15.2-12.2-15.1c-19,0.1-16.4-2.4-16.6,12.6c-0.2,16.1,0,16.1,13.1,16.1C641.5,561.5,641.5,561.5,641.5,548z
		 M423.1,569c-0.2-17.2,2.1-15.1-12.2-15.1c-18.7,0-16.4-2.3-16.5,11.7c-0.2,17-0.1,17,13.1,17.1C423.1,582.6,423.1,582.6,423.1,569
		z M524.6,589.1c0.2,16.4-2,14.4,11.8,14.5c16.9,0.1,16.9,0,17-12.2c0-16.5,0-16.5-12.8-16.5C524.6,574.9,524.6,574.9,524.6,589.1z
		 M650.8,628.6c15.3-0.2,13.6,1.8,13.7-11.7c0.1-17,0-17-12.2-17c-16.5,0-16.5,0-16.5,13.7C635.8,628.6,635.8,628.6,650.8,628.6z
		 M457.5,631.3c0.2,16.4-2,14.4,11.8,14.5c16.9,0.1,16.9,0,16.9-12.3c0-16.5,0-16.5-12.8-16.5C457.5,617.1,457.5,617.1,457.5,631.3z
		 M586.9,695.6c16.2-0.2,14.2,1.9,14.3-12c0.1-16.7,0-16.7-12.5-16.8c-16.2,0-16.2,0-16.2,13C572.5,695.6,572.5,695.6,586.9,695.6z
		 M409.4,684.1c-16.9,0.2-14.9-1.9-15,11.4c-0.2,17.4-0.1,17.4,12.7,17.4c16,0,16,0,16-12.3C423.1,684.1,423.1,684.1,409.4,684.1z
		 M501.8,737.8c17.5-0.3,15,2.1,15.1-12.1c0.2-16.6,0-16.6-12.6-16.6c-16.1,0-16.1,0-16.1,13.1C488.2,737.8,488.2,737.8,501.8,737.8
		z M242.4,730.1c-16.5,0.2-14.7-2-14.8,11.6c-0.1,17.2,0,17.2,12,17.2c16.7,0,16.7,0,16.7-12.5C256.4,730.1,256.4,730.1,242.4,730.1
		z M632.9,758.9c16.3-0.2,14.2,1.9,14.3-12c0.1-16.7,0-16.7-12.5-16.7c-16.2,0-16.2,0-16.2,13C618.5,758.9,618.5,758.9,632.9,758.9z
		 M338.8,764.9c-0.2-15.3,1.8-13.6-11.8-13.7c-17-0.1-17,0-17,12.2c0,16.5,0,16.5,13.7,16.5C338.8,779.9,338.8,779.9,338.8,764.9z
		 M432.6,791.1c-0.2-17.1,1.9-15-11.3-15c-19.9,0-17.2-2.4-17.4,11.8c-0.2,16.9-0.1,16.9,13.2,16.9
		C432.6,804.8,432.6,804.8,432.6,791.1z M566.7,779.9c-17.5,0.3-15.1-2.1-15.2,12.1c-0.2,16.7,0,16.7,11.5,16.7
		c17.2,0,17.2,0,17.2-12.1C580.2,779.9,580.2,779.9,566.7,779.9z M275.6,811.6c-0.2-16.3,1.9-14.3-11.9-14.4
		c-16.9-0.1-16.9,0-16.9,12.4c0,16.4,0,16.4,12.9,16.4C275.6,825.9,275.6,825.9,275.6,811.6z M648.1,829.8
		c16.3-0.2,14.3,1.9,14.4-11.9c0.1-16.9,0-16.9-12.3-16.9c-16.4,0-16.4,0-16.4,12.9C633.8,829.8,633.8,829.8,648.1,829.8z
		 M351.3,818.3c-16.3,0.2-14.3-2-14.4,11.9c-0.1,16.8,0,16.8,12.4,16.8c16.3,0,16.3,0,16.4-12.8
		C365.6,818.3,365.6,818.3,351.3,818.3z M481.8,822.1c-16.5,0.2-14.5-2-14.6,11.7c-0.1,17,0,17,12.2,17c16.5,0,16.5,0,16.5-12.7
		C495.9,822.1,495.9,822.1,481.8,822.1z"/>
	<path class="st3" d="M631.4,889.4c19.2,0,38.4,0,57.6,0c0.8,15,0.8,15,16,15c5.1,0,10.2-0.3,15.3,0.2c15.1,1.4,26.7,14.3,26.4,28.9
		c-0.3,14.8-12.1,27.1-27.2,28.2c-1.9,0.1-3.8,0.1-5.7,0.1c-179.1,0-358.2,0-537.3,0.1c-12.5,0-22.7-3.6-29.1-14.6
		c-10.5-18.1,1.3-40.5,22.4-42.7c3.5-0.4,7-0.2,10.5-0.2c124.2,0,248.4,0,372.5,0c15.9,0,15.9,0,17.3-15.1c9.2,0,18.4,0,27.5,0
		c1.3,15,1.3,15,16.9,15C630,904.5,630,904.5,631.4,889.4z"/>
	<path class="st4" d="M689,463.6c-3.2-0.2-6.7,0.5-9.5-0.7c-5.8-2.4-9.4-0.1-13.5,3.8c-39.2,37.6-104.2,36.9-142.6-1.5
		c-3.5-3.5-6.5-7.5-11.2-12.9c-2.7,18.4-1.4,34-6.8,48.9c-17.1,47.5-81,60.7-115.1,23.5c-1.2-1.4-2.2-3.7-4.4-2.5
		c-2.3,1.3-1.3,4-1.3,6.1c-0.1,37.4,0.2,74.7-0.2,112.1c-0.2,18.5-3.2,36.4-12.9,53c-25.3,43.2-85.2,57-126.6,24
		c-22.5-18-33.1-41.6-33-70.8c0.4-76.6,0-153.3,0.3-229.9c0-8.4-2.6-12-11-10.6c-1.5-23.4-1.5-23.4,21.6-23.4
		c12.5,0,12.5,0,12.5,12.7c0,83.4-0.1,166.7,0,250.1c0,30.1,16,53.9,41.5,62.6c40.1,13.7,81.3-14,82.8-56.4
		c0.9-25.2,0.3-50.5,0.3-75.7c0-42.2,0-84.3,0-126.5c0-2.9-0.2-5.8,0.2-8.6c1.3-9.7,8.3-16.1,17.2-16c9.4,0.1,16.5,7,16.9,17.2
		c0.5,12.1-0.2,24.3,0.4,36.4c1,19.8,14.1,36.1,32.7,41.7c18.2,5.4,38-1,49.5-16.3c6.8-9,9.6-19.2,9.5-30.5
		c-0.1-27.1,0.2-54.3-0.2-81.4c-0.1-7.1,1.2-9.9,9.2-9.6c18.2,0.6,18,0.2,20.8,18c5.6,35,25.4,58.1,59.6,67.1
		c32.3,8.5,60-1.3,81.5-26.6c5.1-6,9.1-7.9,15.8-4.3c4.9,2.6,12.9-0.2,15.1,4.2c2.5,5.3,1,12.4,1.2,18.8
		C689.4,461.1,689.1,462.4,689,463.6z"/>
	<path class="st3" d="M888.6,653.9c0,39.9,0,79.9,0,119.8c0,32.3-17.3,49.6-49.8,49.6c-37.4,0-74.7-0.4-112.1-0.2
		c-6.7,0-8.9-1.7-8.5-8.5c0.6-10.2,0.6-20.5,0-30.6c-0.4-7,2.2-8.3,8.6-8.2c21.7,0.3,43.4-0.1,65.2-0.2
		c31.1-0.2,48.7-17.7,48.7-48.8c0.1-48.9,0.1-97.8,0-146.6c-0.1-30.2-17.4-47.7-47.4-47.9c-22.4-0.2-44.7-0.4-67.1-0.2
		c-6.2,0.1-8.3-1.5-8-7.9c0.5-11.2,0.3-22.4,0.1-33.5c-0.1-4.6,1.3-6,5.9-6c40.9,0.1,81.8-0.5,122.7,0.1
		c24.5,0.3,41.5,19.4,41.7,45.6C888.8,571.4,888.6,612.6,888.6,653.9z"/>
	<path class="st1" d="M718.1,653.4c0-28.4,0.2-56.8-0.1-85.2c-0.1-5.9,1.5-7.5,7.4-7.4c23,0.4,45.9,0.1,68.9,0.2
		c12.4,0.1,17.6,5.1,17.7,17.4c0.1,50.1,0.1,100.2,0,150.3c0,12.5-5.4,17.8-18.3,17.9c-23,0.2-46-0.1-68.9,0.2
		c-5.9,0.1-6.7-2.2-6.7-7.3C718.2,710.8,718.1,682.1,718.1,653.4z"/>
	<path class="st3" d="M767.8,273.8c-5.2-0.1-5.7,4.5-7.3,7.7c-16.9,32.3-41.5,56.6-74.3,72.5c-24.6,11.9-48.3,5.4-62.4-16.7
		c-1.9-3-3.6-6-3.4-9.7c32.5-3.3,61-14.7,83.4-39.3c13.8-15.1,23.3-32.5,27.7-52.6c1.3-5.9,3.2-6.6,8-3.3
		C754.1,242.8,764.3,256,767.8,273.8z"/>
	<path class="st3" d="M312,78.5c16.5,8.7,33.8,16.2,48,28.7c20.8,18.3,38.1,39.3,46.4,66.3c6.1,19.7-6.2,49.3-31,54.3
		c-2.5-31.6-13.4-59.4-36.7-81.6c-14.1-13.4-30.1-23.4-49-28.3c-6.1-1.6-7.9-3.3-3.6-9.2C293.9,97.9,301.3,86.8,312,78.5z"/>
	<path class="st3" d="M637.9,198c0.5,14.1-2.3,27.8-5.1,41.5c-7.2,35.6-28.7,52.1-65,47.2c9.5-17.9,18.4-36.1,22.7-56.2
		c6.3-29.1,6.6-58-1.3-86.7c-1.6-5.8-0.8-7.6,5-9c12.6-2.9,25.1-4.1,37.7-1c0,9.9,5.2,19.2,3.6,29.3c-19-3.1-19-3.1-19,16.6
		c0,1,0.1,1.9,0,2.9c-0.3,4.2,0.1,6.8,5.6,7.3C628.1,190.5,633.9,193,637.9,198z"/>
	<path class="st0" d="M240,325.4c-20.1,0-40.2,0.4-60.3-0.1c-27-0.6-45.1-23.2-38.5-47.3c0.9-3.3,2.3-6.7,4.2-9.6
		c4.8-7.5,13-16.8,19.5-14.5c6.8,2.5,6.2,15.4,9,23.8c0.5,1.6-1.2,2.6-2.1,3.9c-5.2,7.1-2.6,13.4,6.2,14.8c2.5,0.4,5.1,0.2,7.6,0.2
		c38,0,75.9,0.1,113.9-0.1c6.1,0,8.1,1.4,8.1,7.8c-0.1,21.1,0.2,21.1-20.6,21.1C271.3,325.4,255.7,325.4,240,325.4z"/>
	<path class="st0" d="M414.5,80.9c0-14.8,0-15,14.7-13c44.8,6.1,76.9,29.7,97.1,70.1c2.6,5.3,2.2,7.6-3.7,9.4
		c-6.4,1.9-12.7,7.2-18.6,6.5c-6-0.7-6.4-9.9-9.9-15.1c-16.1-23.8-38.1-37.9-66.4-42.4C414.5,94.4,414.5,94.4,414.5,80.9z"/>
	<path class="st0" d="M637.9,198c-4-5.1-9.8-7.5-15.7-8c-5.6-0.5-6-3.2-5.6-7.3c0.1-1,0-1.9,0-2.9c0-19.8,0-19.8,19-16.6
		c19.1,8,33.1,20.8,39.6,41c2.2,6.7,2.3,11.5-6.7,11.3c-1.3,0-2.5,0.3-3.8,0.5c-9.4,2.1-17.8,2.7-20-10.2
		C644.1,202.7,641.1,199.8,637.9,198z"/>
	<path class="st0" d="M256.4,186.9c2.3,7.7-0.7,12.3-10.8,14.4c-8.9,1.8-15.7,8.8-18.8,17.6c-1.9,5.4-4.6,5.9-9.2,4.8
		c-3.4-0.8-6.9-1.4-10.3-2.1c-12.1-2.5-12.2-2.6-6.8-14.5c8.9-19.8,24.3-31.2,45.2-36c7.4-1.7,12.7-1.5,10.7,8.5
		C256.1,181.4,256.4,183.4,256.4,186.9z"/>
	<path class="st0" d="M375.1,296.6c2.9,0,5.8-0.2,8.6,0c6.2,0.5,15.8-3,18,1.5c3.2,6.5,1.2,15.5,1.4,23.4c0.1,2.8-1.4,3.9-4.2,3.9
		c-16.3-0.1-32.9,2-48.7-0.7c-10.8-1.8-2.2-13.9-4.5-21c-1.1-3.6-0.8-7.6,5.4-7.2C359.1,297,367.1,296.6,375.1,296.6z"/>
	<path class="st0" d="M631.4,889.4c-1.4,15.1-1.4,15.1-16.8,15.1c-15.6,0-15.6,0-16.9-15c0.2-1.9,0.7-3.8,0.4-5.6
		c-1-6.8,2-9,8.4-8.2c3.1,0.4,6.3,0.1,9.4,0.1C630.2,875.7,630.2,875.7,631.4,889.4z"/>
	<path class="st1" d="M542.9,490.6c14.3,0,14.3,0,14.3,15.9c0,12.9,0,12.9-16.4,12.9c-12.4,0-12.5,0-12.4-16.8
		C528.6,488.7,526.6,490.8,542.9,490.6z"/>
	<path class="st1" d="M641.5,548c0,13.6,0,13.6-15.7,13.6c-13.1,0-13.2,0-13.1-16.1c0.2-15-2.4-12.5,16.6-12.6
		C643.7,532.8,641.3,530.8,641.5,548z"/>
	<path class="st1" d="M423.1,569c0,13.6,0,13.6-15.6,13.6c-13.2,0-13.3,0-13.1-17.1c0.1-13.9-2.1-11.6,16.5-11.7
		C425.2,553.9,422.8,551.8,423.1,569z"/>
	<path class="st1" d="M524.6,589.1c0-14.2,0-14.2,16-14.2c12.8,0,12.8,0,12.8,16.5c0,12.3,0,12.4-17,12.2
		C522.6,603.5,524.9,605.5,524.6,589.1z"/>
	<path class="st1" d="M650.8,628.6c-15.1,0-15.1,0-15.1-15.1c0-13.7,0-13.7,16.5-13.7c12.2,0,12.3,0,12.2,17
		C664.4,630.3,666.1,628.4,650.8,628.6z"/>
	<path class="st1" d="M457.5,631.3c0-14.2,0-14.2,16-14.2c12.8,0,12.8,0,12.8,16.5c0,12.3,0,12.4-16.9,12.3
		C455.5,645.7,457.8,647.7,457.5,631.3z"/>
	<path class="st1" d="M586.9,695.6c-14.4,0-14.4,0-14.4-15.8c0-13,0-13,16.2-13c12.5,0,12.6,0,12.5,16.8
		C601.1,697.6,603.2,695.4,586.9,695.6z"/>
	<path class="st1" d="M409.4,684.1c13.7,0,13.7,0,13.7,16.5c0,12.3,0,12.3-16,12.3c-12.8,0-12.9,0-12.7-17.4
		C394.5,682.2,392.4,684.3,409.4,684.1z"/>
	<path class="st5" d="M501.8,737.8c-13.6,0-13.6,0-13.6-15.6c0-13.1,0-13.1,16.1-13.1c12.6,0,12.8,0,12.6,16.6
		C516.8,739.9,519.3,737.5,501.8,737.8z"/>
	<path class="st1" d="M242.4,730.1c14,0,14,0,14,16.2c0,12.5,0,12.5-16.7,12.5c-12.1,0-12.2,0-12-17.2
		C227.8,728.1,225.9,730.3,242.4,730.1z"/>
	<path class="st5" d="M632.9,758.9c-14.4,0-14.4,0-14.4-15.8c0-13,0-13,16.2-13c12.5,0,12.6,0,12.5,16.7
		C647.1,760.8,649.2,758.6,632.9,758.9z"/>
	<path class="st1" d="M338.8,764.9c0,15.1,0,15.1-15.1,15.1c-13.7,0-13.7,0-13.7-16.5c0-12.2,0-12.3,17-12.2
		C340.6,751.3,338.6,749.6,338.8,764.9z"/>
	<path class="st5" d="M432.6,791.1c0,13.7,0,13.7-15.5,13.7c-13.3,0-13.4,0-13.2-16.9c0.2-14.2-2.6-11.7,17.4-11.8
		C434.5,776.1,432.4,774,432.6,791.1z"/>
	<path class="st5" d="M566.7,779.9c13.5,0,13.5,0,13.5,16.7c0,12.1,0,12.1-17.2,12.1c-11.6,0-11.7,0-11.5-16.7
		C551.7,777.8,549.2,780.2,566.7,779.9z"/>
	<path class="st1" d="M275.6,811.6c0,14.3,0,14.3-15.9,14.3c-12.9,0-12.9,0-12.9-16.4c0-12.4,0-12.5,16.9-12.4
		C277.5,797.3,275.3,795.3,275.6,811.6z"/>
	<path class="st5" d="M648.1,829.8c-14.3,0-14.3,0-14.3-15.9c0-12.9,0-12.9,16.4-12.9c12.4,0,12.5,0,12.3,16.9
		C662.4,831.7,664.5,829.5,648.1,829.8z"/>
	<path class="st5" d="M351.3,818.3c14.3,0,14.3,0,14.3,15.9c0,12.8,0,12.8-16.4,12.8c-12.4,0-12.5,0-12.4-16.8
		C337,816.3,335.1,818.5,351.3,818.3z"/>
	<path class="st5" d="M481.8,822.1c14.1,0,14.1,0,14.1,16.1c0,12.7,0,12.7-16.5,12.7c-12.2,0-12.3,0-12.2-17
		C467.3,820.1,465.2,822.3,481.8,822.1z"/>
</g>
</svg>
