<?xml version="1.0" encoding="utf-8"?>
<!-- Generator: Adobe Illustrator 24.1.2, SVG Export Plug-In . SVG Version: 6.00 Build 0)  -->
<svg version="1.1" id="Capa_1" xmlns="http://www.w3.org/2000/svg" xmlns:xlink="http://www.w3.org/1999/xlink" x="0px" y="0px"
	 viewBox="0 0 1000 1000" style="enable-background:new 0 0 1000 1000;" xml:space="preserve">
<g>
	<path d="M20.6,185.6c4-12.9,12.4-22.6,21.8-31.9C81.4,115,120.1,76.1,159,37.3c22.2-22.1,47.8-22.2,69.8-0.2
		c41.7,41.6,83.4,83.3,125.1,125c13.1,13.1,17.1,28.8,11.4,46.4c-5.7,17.7-18.5,27.8-36.7,30.5c-14.9,2.2-27.6-3-38.2-13.4
		c-14.4-14.3-28.7-28.7-43-43c-2.1-2.1-4.4-4-7.7-7.1c-0.2,4.4-0.5,7.4-0.5,10.4c0,158.4-0.1,316.9,0,475.3
		c0,51.1,30.6,89.3,78.5,98.2c6.1,1.1,12.4,1.3,18.6,1.3c159.7,0.1,319.4,0.1,479.1,0c2.4,0,4.9-0.2,8.7-0.4
		c-2.4-2.8-3.9-4.9-5.8-6.8c-14.3-14.4-28.8-28.6-43-43.1c-19.2-19.6-19.6-46.9-1.3-65.2c17.7-17.6,45.8-17.2,64.7,1.5
		c42.3,42,84.4,84.1,126.3,126.4c19.1,19.3,19.1,45.8-0.1,65.2c-42.4,42.8-84.9,85.3-127.8,127.6c-5.8,5.7-14,8.9-21,13.3
		c-7.5,0-15,0-22.5,0c-0.8-0.5-1.5-1.2-2.3-1.5c-34.5-13.9-42-50.4-15.8-76.9c12.5-12.6,25.1-25.2,37.7-37.7
		c3.6-3.6,7.2-7.2,12.5-12.6c-6.1,0-9.5,0-12.8,0c-55.8,0-111.7,0-167.5,0c-102.3,0-204.7-0.2-307,0.1c-34.1,0.1-66.5-6.6-95.8-24.2
		c-61.7-37-93.4-91.8-93.5-164c-0.2-158.5-0.1-317-0.1-475.4c0-3.5,0-6.9,0-12.6c-4.3,4.1-6.6,6.1-8.8,8.3
		c-14.3,14.3-28.4,29-43.1,43c-24.5,23.3-62.1,14.7-74.4-16.7c-0.6-1.7-1.6-3.2-2.4-4.8C20.6,198.1,20.6,191.8,20.6,185.6z"/>
	<path d="M979,367.8c0,55.5-0.8,111.1,0.3,166.6c0.6,30.2-21.6,50.1-45.4,49.9c-26.4-0.2-44.7-20.7-44.7-50.4c0-107.3,0-214.6,0-322
		c0-61.2-40.1-101.2-101.3-101.2c-108.6,0-217.1,0.1-325.7-0.1c-31.8,0-53.4-28.1-44.8-57.6c5.7-19.7,23.1-32.2,45.2-32.2
		c72.7-0.1,145.4,0,218.1,0c36.8,0,73.6,0,110.4,0C897.7,21,979,102.3,979,208.7C979.1,261.7,979,314.8,979,367.8z"/>
	<path d="M503.8,387.9c39.5-33.5,89.6-24.7,116.3,4.6c14,15.4,21.8,33.4,22,54.2c0.3,36.2,0.2,72.4,0.1,108.6
		c-0.1,16.3-10.5,27.3-25.5,27.5c-15.3,0.3-26.7-11-26.8-27.4c-0.2-34.3,0-68.6-0.1-103c0-20.2-11.8-33.5-29.6-33.7
		c-18.1-0.2-30.3,13.5-30.3,34c-0.1,34.6,0.1,69.3-0.1,103.9c-0.1,11.7-6.5,21-16.8,24.6c-10.3,3.6-20.7,2.5-27.3-6.2
		c-4.5-6-7.7-14.5-7.8-22c-0.8-34.6-0.2-69.3-0.4-103.9c-0.2-21.3-19.6-35.4-39.2-29c-12.5,4.1-20.5,15.5-20.6,30.3
		c-0.1,34.9,0.1,69.9-0.1,104.8c-0.1,17.4-12,28.6-28.4,27.4c-13.1-0.9-23.7-11.4-23.8-25.5c-0.3-56.5-0.3-112.9,0-169.4
		c0.1-10.8,5.8-19,15.9-23.3c10.1-4.3,19.4-2.2,27.9,4.6c2.1,1.7,5.7,3.6,7.7,2.9C448.9,360.5,477.6,366.3,503.8,387.9z"/>
	<path d="M721.5,405c12.1,0,24.1-0.3,36.2,0.1c13.3,0.4,21.3,11.4,17,22.8c-2.7,7.1-8.3,10.7-16,10.7c-26.5,0-53,0-79.5,0.1
		c-8,0-13.9-3.1-17-10.6c-3.2-7.7-0.5-13.9,5-19.4c21.8-21.8,43.8-43.5,65.4-65.6c3.8-3.8,7.3-8.8,8.7-13.9
		c3.2-11.2-3.8-23-14.7-26.9c-11.7-4.2-24.8,1.1-29.9,12.3c-1.2,2.5-1.6,5.4-2.5,8c-3.2,9.3-11.8,14.2-20.4,11.8
		c-9-2.5-14-10.7-12.3-20.2c5.3-30,33.2-50,64.7-46.4c29.2,3.4,51.4,30.4,49.6,60.3c-0.9,14.7-7.1,26.9-17.4,37.2
		c-12.6,12.5-25.3,24.9-37.9,37.3C720.7,403.3,721.1,404.2,721.5,405z"/>
</g>
</svg>
