<?xml version="1.0" encoding="iso-8859-1"?>
<!-- Uploaded to: SVG Repo, www.svgrepo.com, Generator: SVG Repo Mixer Tools -->
<svg version="1.1" id="Layer_1" xmlns="http://www.w3.org/2000/svg" xmlns:xlink="http://www.w3.org/1999/xlink" 
	 viewBox="0 0 511.999 511.999" xml:space="preserve">
<path style="fill:#74DBC9;" d="M447.776,503.458H64.224c-23.322,0-39.791-22.848-32.416-44.974l96.812-290.436
	c4.651-13.953,17.708-23.364,32.416-23.364h189.927c14.708,0,27.764,9.411,32.416,23.364l96.812,290.436
	C487.566,480.609,471.097,503.458,447.776,503.458z"/>
<path style="fill:#6AC8B7;" d="M61.308,458.484l96.812-290.436c4.651-13.953,17.708-23.364,32.416-23.364h-29.5
	c-14.708,0-27.764,9.411-32.416,23.364L31.809,458.484c-7.375,22.125,9.093,44.974,32.416,44.974h29.5
	C70.401,503.458,53.933,480.609,61.308,458.484z"/>
<rect x="238.915" y="110.515" style="fill:#C3C4C6;" width="34.169" height="34.169"/>
<path style="fill:#88898E;" d="M256,8.008c-28.307,0-51.253,22.947-51.253,51.253s22.947,51.253,51.253,51.253
	s51.253-22.947,51.253-51.253S284.306,8.008,256,8.008z M256,84.888c-14.153,0-25.627-11.473-25.627-25.627
	S241.846,33.635,256,33.635s25.627,11.473,25.627,25.627S270.153,84.888,256,84.888z"/>
<circle style="fill:#F2C127;" cx="256" cy="324.071" r="128.133"/>
<circle style="fill:#FDD042;" cx="256" cy="324.071" r="102.507"/>
<path d="M487.788,455.951L420.205,253.2c-1.381-4.141-5.989-6.446-10.13-5.066c-4.14,1.381-6.444,5.989-5.064,10.13l67.583,202.751
	c2.692,8.075,1.382,16.932-3.595,23.836c-4.976,6.904-12.711,11.132-21.222,11.132H64.224c-8.511,0-16.246-4.226-21.222-11.131
	s-6.287-15.629-3.595-23.703l96.812-290.236c3.566-10.699,13.539-17.688,24.818-17.688h189.927c11.278,0,21.251,6.921,24.818,17.62
	l18.159,54.345c1.399,4.196,5.93,6.397,10.13,4.998c4.195-1.399,6.463-5.967,5.064-10.163l-18.159-54.228
	c-5.751-17.25-21.831-28.589-40.014-28.589h-70.405v-24.278c20.288-9.466,34.436-29.959,34.436-53.67
	C314.994,26.584,288.543,0,255.866,0s-59.462,26.584-59.462,59.262c0,23.711,14.749,44.204,33.969,53.67v24.278h-69.337
	c-18.183,0-34.263,11.323-40.013,28.573L24.21,456.085c-4.338,13.017-2.225,27.068,5.797,38.199
	c8.023,11.132,20.494,17.716,34.216,17.716h383.552c13.722,0,26.193-6.651,34.216-17.783
	C490.014,483.086,492.127,468.969,487.788,455.951z M212.755,59.262c0-23.846,19.399-43.245,43.245-43.245
	s43.245,19.399,43.245,43.245S279.845,102.507,256,102.507C232.155,102.507,212.755,83.107,212.755,59.262z M246.39,117.828
	c3.203,0.457,5.99,0.695,9.076,0.695c3.086,0,6.941-0.238,9.076-0.695v19.381H246.39V117.828z"/>
<path d="M289.635,59.262c0-18.546-15.089-33.635-33.635-33.635s-33.635,15.089-33.635,33.635S237.453,92.897,256,92.897
	S289.635,77.808,289.635,59.262z M238.381,59.262c0-9.715,7.904-17.618,17.618-17.618c9.715,0,17.618,7.904,17.618,17.618
	S265.714,76.88,256,76.88S238.381,68.976,238.381,59.262z"/>
<path d="M256,187.929c-75.069,0-136.142,61.073-136.142,136.142S180.93,460.213,256,460.213s136.142-61.073,136.142-136.142
	S331.069,187.929,256,187.929z M256,444.196c-66.238,0-120.125-53.888-120.125-120.125S189.762,203.946,256,203.946
	c66.236,0,120.125,53.888,120.125,120.125S322.236,444.196,256,444.196z"/>
<path d="M245.068,276.233c-2.833-3.399-8.149-3.857-11.546-1.025l-38.386,31.765V281.36c0-4.423-3.586-8.008-8.008-8.008
	c-4.423,0-8.008,3.586-8.008,8.008v85.422c0,4.423,3.586,8.008,8.008,8.008c4.423,0,8.008-3.586,8.008-8.008v-25.613l38.386,31.765
	c3.626,3.021,9.367,2.18,11.957-1.76c2.208-3.357,1.58-7.975-1.503-10.545l-43.838-36.559l43.888-36.559
	C247.423,284.681,247.899,279.631,245.068,276.233z"/>
<path d="M281.626,289.902h42.711c4.424,0,8.008-3.586,8.008-8.008s-3.585-8.008-8.008-8.008h-42.711
	c-9.126,0-17.084,6.89-17.084,16.017v68.338c0,9.126,7.958,17.084,17.084,17.084h34.169c9.126,0,16.017-7.958,16.017-17.084v-34.169
	c0-4.423-3.051-7.474-7.474-7.474h-25.627c-4.424,0-8.008,3.586-8.008,8.008s3.585,8.008,8.008,8.008h17.084v25.627
	c0,0.295,0.294,1.068,0,1.068h-34.169c-0.294,0-1.068-0.773-1.068-1.068v-68.338C280.559,289.607,281.333,289.902,281.626,289.902z"
	/>
</svg>